<?xml version="1.0" encoding="UTF-8" standalone="no"?>
<!-- Created with Inkscape (http://www.inkscape.org/) -->

<svg
   xmlns:dc="http://purl.org/dc/elements/1.1/"
   xmlns:cc="http://creativecommons.org/ns#"
   xmlns:rdf="http://www.w3.org/1999/02/22-rdf-syntax-ns#"
   xmlns:svg="http://www.w3.org/2000/svg"
   xmlns="http://www.w3.org/2000/svg"
   xmlns:sodipodi="http://sodipodi.sourceforge.net/DTD/sodipodi-0.dtd"
   xmlns:inkscape="http://www.inkscape.org/namespaces/inkscape"
   width="24in"
   height="24in"
   viewBox="0 0 2160 2160.0001"
   id="svg4203"
   version="1.1"
   inkscape:version="0.91 r13725"
   sodipodi:docname="keyboard cover plain.svg">
  <defs
     id="defs4205" />
  <sodipodi:namedview
     id="base"
     pagecolor="#ffffff"
     bordercolor="#666666"
     borderopacity="1.0"
     inkscape:pageopacity="0.0"
     inkscape:pageshadow="2"
     inkscape:zoom="0.45380077"
     inkscape:cx="707.71205"
     inkscape:cy="107.24476"
     inkscape:document-units="px"
     inkscape:current-layer="layer1"
     showgrid="false"
     units="in"
     inkscape:window-width="1280"
     inkscape:window-height="751"
     inkscape:window-x="1"
     inkscape:window-y="1"
     inkscape:window-maximized="0" />
  <metadata
     id="metadata4208">
    <rdf:RDF>
      <cc:Work
         rdf:about="">
        <dc:format>image/svg+xml</dc:format>
        <dc:type
           rdf:resource="http://purl.org/dc/dcmitype/StillImage" />
        <dc:title></dc:title>
      </cc:Work>
    </rdf:RDF>
  </metadata>
  <g
     inkscape:label="Layer 1"
     inkscape:groupmode="layer"
     id="layer1"
     transform="translate(0,1107.6379)">
    <path
       style="fill:none;fill-opacity:1;stroke:#000000;stroke-width:3.54150009;stroke-miterlimit:4;stroke-dasharray:none;stroke-opacity:1"
       d="m 1.77075,491.63297 1492.70845,0 0,558.95853 -1492.70845,0 z"
       id="rect4751" />
    <path
       style="fill:none;fill-opacity:1;stroke:#000000;stroke-width:0.24602851;stroke-miterlimit:4;stroke-dasharray:none;stroke-opacity:1"
       d="m 22.5,1052.2392 c -12.358473,0 -22.37699328,-10.0185 -22.37698555,-22.377"
       id="path4773"
       inkscape:connector-curvature="0"
       sodipodi:nodetypes="cc" />
    <path
       style="fill:none;fill-opacity:1;stroke:#000000;stroke-width:0.24602851;stroke-miterlimit:4;stroke-dasharray:none;stroke-opacity:1"
       d="m 1496.127,1029.8622 c 0,12.3585 -10.0185,22.377 -22.377,22.377"
       id="circle4775"
       inkscape:connector-curvature="0"
       sodipodi:nodetypes="cc" />
    <path
       style="fill:none;fill-opacity:1;stroke:#000000;stroke-width:0.44008467;stroke-miterlimit:4;stroke-dasharray:none;stroke-opacity:1"
       d="M 67.279957,996.11216 A 11.029958,11.029958 0 0 1 56.25,1007.1421 11.029958,11.029958 0 0 1 45.220042,996.11216 11.029958,11.029958 0 0 1 56.25,985.08216 a 11.029958,11.029958 0 0 1 11.029957,11.03 z"
       id="path4136"
       inkscape:connector-curvature="0" />
    <path
       id="path4166"
       d="M 67.279958,546.11216 A 11.029958,11.029958 0 0 1 56.25,557.14206 11.029958,11.029958 0 0 1 45.220042,546.11216 11.029958,11.029958 0 0 1 56.25,535.08216 a 11.029958,11.029958 0 0 1 11.029958,11.03 z"
       style="fill:none;fill-opacity:1;stroke:#000000;stroke-width:0.44008467;stroke-miterlimit:4;stroke-dasharray:none;stroke-opacity:1"
       inkscape:connector-curvature="0" />
    <path
       inkscape:connector-curvature="0"
       style="fill:none;fill-opacity:1;stroke:#000000;stroke-width:0.44008467;stroke-miterlimit:4;stroke-dasharray:none;stroke-opacity:1"
       d="m 1451.03,546.11216 a 11.029958,11.029958 0 0 1 -11.03,11.0299 11.029958,11.029958 0 0 1 -11.03,-11.0299 11.029958,11.029958 0 0 1 11.03,-11.03 11.029958,11.029958 0 0 1 11.03,11.03 z"
       id="path4168" />
    <path
       id="path4170"
       d="M 1451.0299,996.11216 A 11.029932,11.029959 0 0 1 1440,1007.1421 a 11.029932,11.029959 0 0 1 -11.03,-11.02994 11.029932,11.029959 0 0 1 11.03,-11.03 11.029932,11.029959 0 0 1 11.0299,11.03 z"
       style="fill:none;fill-opacity:1;stroke:#000000;stroke-width:0.44008416;stroke-miterlimit:4;stroke-dasharray:none;stroke-opacity:1"
       inkscape:connector-curvature="0" />
    <g
       style="font-style:normal;font-weight:normal;font-size:119.53953552px;line-height:125%;font-family:sans-serif;letter-spacing:0px;word-spacing:0px;fill:#000000;fill-opacity:1;stroke:none;stroke-width:1px;stroke-linecap:butt;stroke-linejoin:miter;stroke-opacity:1"
       id="text4172">
      <path
         d="m 244.72232,812.14784 q 0,8.34675 4.14419,13.133 4.1442,4.72788 11.38194,4.72788 7.17938,0 11.2652,-4.78625 4.1442,-4.78625 4.1442,-13.07463 0,-8.17165 -4.20257,-12.9579 -4.20256,-4.84462 -11.32357,-4.84462 -7.06263,0 -11.2652,4.78625 -4.14419,4.78625 -4.14419,13.01627 z m 31.81106,17.4523 q -3.50214,4.49441 -8.05491,6.65406 -4.49441,2.10128 -10.50641,2.10128 -10.03945,0 -16.34329,-7.23775 -6.24548,-7.29611 -6.24548,-18.96989 0,-11.67379 6.30385,-18.9699 6.30384,-7.29611 16.28492,-7.29611 6.012,0 10.56478,2.21801 4.55277,2.15965 7.99654,6.59569 l 0,-7.64633 8.34675,0 0,42.95952 q 8.52187,-1.28411 13.30812,-7.76306 4.84462,-6.53732 4.84462,-16.86862 0,-6.24547 -1.86781,-11.73215 -1.80944,-5.48668 -5.54505,-10.15619 -6.07036,-7.64633 -14.8257,-11.67378 -8.69697,-4.08583 -18.9699,-4.08583 -7.17937,0 -13.77506,1.92618 -6.59569,1.8678 -12.1991,5.60341 -9.16392,5.95363 -14.35876,15.64287 -5.13646,9.63087 -5.13646,20.89607 0,9.28066 3.32703,17.39394 3.38539,8.11328 9.74761,14.30038 6.12873,6.07037 14.18364,9.22229 8.05491,3.21029 17.21883,3.21029 7.52959,0 14.76734,-2.56823 7.29611,-2.50986 13.36648,-7.23775 l 5.2532,6.47895 q -7.29611,5.66179 -15.93471,8.6386 -8.58023,3.03519 -17.45231,3.03519 -10.79825,0 -20.37075,-3.85235 -9.5725,-3.79398 -17.04372,-11.0901 -7.47122,-7.29611 -11.38194,-16.86861 -3.91072,-9.63087 -3.91072,-20.6626 0,-10.62314 3.96909,-20.25401 3.96908,-9.63087 11.32357,-16.92698 7.52959,-7.41286 17.39393,-11.32357 9.86435,-3.96909 20.89608,-3.96909 12.3742,0 22.93898,5.0781 10.62314,5.07809 17.80252,14.41712 4.37767,5.72015 6.65405,12.43258 2.33476,6.71242 2.33476,13.8918 0,15.35102 -9.28066,24.2231 -9.28066,8.87207 -25.62395,9.22228 l 0,-8.98881 z"
         style=""
         id="path4177" />
      <path
         d="m 383.99055,759.20723 0,11.49868 q -6.71243,-3.21029 -12.66606,-4.78625 -5.95362,-1.57596 -11.49867,-1.57596 -9.63087,0 -14.88407,3.73561 -5.19484,3.73561 -5.19484,10.62314 0,5.77852 3.44377,8.75534 3.50213,2.91844 13.19137,4.72788 l 7.12101,1.45922 q 13.19137,2.50986 19.43685,8.87208 6.30384,6.30384 6.30384,16.92698 0,12.66606 -8.52186,19.20337 -8.46349,6.53732 -24.86516,6.53732 -6.1871,0 -13.19137,-1.40085 -6.9459,-1.40086 -14.41712,-4.14419 l 0,-12.14074 q 7.17937,4.02746 14.0669,6.07037 6.88754,2.04291 13.54159,2.04291 10.09782,0 15.5845,-3.96909 5.48668,-3.96908 5.48668,-11.32357 0,-6.42058 -3.96909,-10.03945 -3.91071,-3.61887 -12.89953,-5.42831 l -7.17937,-1.40085 q -13.19138,-2.6266 -19.08664,-8.23002 -5.89526,-5.60341 -5.89526,-15.5845 0,-11.55704 8.11328,-18.2111 8.17165,-6.65406 22.47203,-6.65406 6.12874,0 12.49095,1.10901 6.36221,1.10901 13.01627,3.32703 z"
         style=""
         id="path4179" />
      <path
         d="m 406.28748,817.69288 0,-39.57412 10.73988,0 0,39.16554 q 0,9.28066 3.61887,13.95017 3.61887,4.61115 10.85662,4.61115 8.69697,0 13.71669,-5.54505 5.0781,-5.54505 5.0781,-15.11755 l 0,-37.06426 10.73988,0 0,65.37318 -10.73988,0 0,-10.03945 q -3.91072,5.95363 -9.10555,8.87208 -5.13647,2.86007 -11.96563,2.86007 -11.2652,0 -17.10209,-7.00427 -5.83689,-7.00427 -5.83689,-20.48749 z"
         style=""
         id="path4181" />
      <path
         d="m 526.29395,810.04656 q 0,-11.67379 -4.84462,-18.09437 -4.78625,-6.42058 -13.48321,-6.42058 -8.6386,0 -13.48322,6.42058 -4.78625,6.42058 -4.78625,18.09437 0,11.61541 4.78625,18.03599 4.84462,6.42058 13.48322,6.42058 8.69696,0 13.48321,-6.42058 4.84462,-6.42058 4.84462,-18.03599 z m 10.73988,25.3321 q 0,16.69351 -7.41285,24.80679 -7.41285,8.17165 -22.70551,8.17165 -5.66178,0 -10.68151,-0.87553 -5.01972,-0.81717 -9.74761,-2.56824 l 0,-10.44803 q 4.72789,2.56823 9.33903,3.79398 4.61115,1.22575 9.3974,1.22575 10.56477,0 15.81797,-5.54505 5.2532,-5.48668 5.2532,-16.63514 l 0,-5.31157 q -3.32702,5.77852 -8.52186,8.6386 -5.19483,2.86007 -12.43258,2.86007 -12.02399,0 -19.37848,-9.16392 -7.35448,-9.16392 -7.35448,-24.28146 0,-15.17592 7.35448,-24.33984 7.35449,-9.16392 19.37848,-9.16392 7.23775,0 12.43258,2.86008 5.19484,2.86007 8.52186,8.6386 l 0,-9.92272 10.73988,0 0,57.2599 z"
         style=""
         id="path4183" />
      <path
         d="m 602.17353,810.04656 q 0,-11.67379 -4.84462,-18.09437 -4.78625,-6.42058 -13.48322,-6.42058 -8.6386,0 -13.48322,6.42058 -4.78625,6.42058 -4.78625,18.09437 0,11.61541 4.78625,18.03599 4.84462,6.42058 13.48322,6.42058 8.69697,0 13.48322,-6.42058 4.84462,-6.42058 4.84462,-18.03599 z m 10.73988,25.3321 q 0,16.69351 -7.41285,24.80679 -7.41285,8.17165 -22.70551,8.17165 -5.66178,0 -10.68151,-0.87553 -5.01973,-0.81717 -9.74761,-2.56824 l 0,-10.44803 q 4.72788,2.56823 9.33903,3.79398 4.61114,1.22575 9.39739,1.22575 10.56478,0 15.81798,-5.54505 5.2532,-5.48668 5.2532,-16.63514 l 0,-5.31157 q -3.32703,5.77852 -8.52186,8.6386 -5.19483,2.86007 -12.43258,2.86007 -12.02399,0 -19.37848,-9.16392 -7.35448,-9.16392 -7.35448,-24.28146 0,-15.17592 7.35448,-24.33984 7.35449,-9.16392 19.37848,-9.16392 7.23775,0 12.43258,2.86008 5.19483,2.86007 8.52186,8.6386 l 0,-9.92272 10.73988,0 0,57.2599 z"
         style=""
         id="path4185" />
      <path
         d="m 690.95267,808.12038 0,5.2532 -49.3801,0 q 0.70043,11.0901 6.65405,16.92699 6.012,5.77852 16.69351,5.77852 6.18711,0 11.96563,-1.51759 5.83689,-1.51759 11.55705,-4.55278 l 0,10.1562 q -5.77853,2.45149 -11.84889,3.73561 -6.07037,1.28411 -12.31584,1.28411 -15.64287,0 -24.80679,-9.10555 -9.10555,-9.10555 -9.10555,-24.63168 0,-16.05145 8.6386,-25.44885 8.69696,-9.45576 23.40593,-9.45576 13.19138,0 20.8377,8.52186 7.7047,8.46349 7.7047,23.05572 z m -10.73988,-3.15192 q -0.11674,-8.81371 -4.96136,-14.06691 -4.78625,-5.2532 -12.72442,-5.2532 -8.98881,0 -14.41712,5.0781 -5.36994,5.07809 -6.18711,14.30038 l 38.29001,-0.0584 z"
         style=""
         id="path4187" />
      <path
         d="m 750.022,780.04493 0,10.1562 q -4.55278,-2.33476 -9.45577,-3.50214 -4.90299,-1.16738 -10.15619,-1.16738 -7.99654,0 -12.024,2.4515 -3.96908,2.45149 -3.96908,7.35448 0,3.73561 2.86007,5.89526 2.86008,2.10128 11.49868,4.02745 l 3.67724,0.81717 q 11.44031,2.45149 16.22656,6.9459 4.84462,4.43604 4.84462,12.43258 0,9.10555 -7.23775,14.41712 -7.17937,5.31157 -19.78706,5.31157 -5.2532,0 -10.97335,-1.05064 -5.66179,-0.99227 -11.96563,-3.03518 l 0,-11.0901 q 5.95363,3.09356 11.73215,4.66952 5.77852,1.51759 11.44031,1.51759 7.58796,0 11.67378,-2.56823 4.08583,-2.6266 4.08583,-7.35449 0,-4.37766 -2.97682,-6.71242 -2.91844,-2.33476 -12.89953,-4.49441 l -3.73561,-0.87553 q -9.98108,-2.10128 -14.41712,-6.42058 -4.43604,-4.37767 -4.43604,-11.96563 0,-9.22229 6.53732,-14.24201 6.53732,-5.01973 18.56131,-5.01973 5.95363,0 11.20684,0.87553 5.2532,0.87554 9.68924,2.6266 z"
         style=""
         id="path4189" />
      <path
         d="m 781.30775,759.55745 0,18.56131 22.12181,0 0,8.34675 -22.12181,0 0,35.4883 q 0,7.99655 2.15965,10.27293 2.21801,2.27639 8.93044,2.27639 l 11.03172,0 0,8.98881 -11.03172,0 q -12.43258,0 -17.16046,-4.61114 -4.72788,-4.66951 -4.72788,-16.92699 l 0,-35.4883 -7.87981,0 0,-8.34675 7.87981,0 0,-18.56131 10.79825,0 z"
         style=""
         id="path4191" />
      <path
         d="m 817.61319,778.11876 10.73988,0 0,65.37318 -10.73988,0 0,-65.37318 z m 0,-25.44885 10.73988,0 0,13.59996 -10.73988,0 0,-13.59996 z"
         style=""
         id="path4193" />
      <path
         d="m 876.09887,785.64835 q -8.6386,0 -13.65833,6.77079 -5.01973,6.71243 -5.01973,18.44458 0,11.73215 4.96136,18.50295 5.01973,6.71242 13.7167,6.71242 8.58023,0 13.59995,-6.77079 5.01973,-6.7708 5.01973,-18.44458 0,-11.61541 -5.01973,-18.38621 -5.01972,-6.82916 -13.59995,-6.82916 z m 0,-9.10555 q 14.00853,0 22.00508,9.10555 7.99654,9.10555 7.99654,25.21537 0,16.05145 -7.99654,25.21537 -7.99655,9.10555 -22.00508,9.10555 -14.06691,0 -22.06345,-9.10555 -7.93818,-9.16392 -7.93818,-25.21537 0,-16.10982 7.93818,-25.21537 7.99654,-9.10555 22.06345,-9.10555 z"
         style=""
         id="path4195" />
      <path
         d="m 978.1861,804.03456 0,39.45738 -10.73988,0 0,-39.10717 q 0,-9.28066 -3.61888,-13.8918 -3.61887,-4.61114 -10.85661,-4.61114 -8.69697,0 -13.7167,5.54504 -5.01973,5.54505 -5.01973,15.11755 l 0,36.94752 -10.79824,0 0,-65.37318 10.79824,0 0,10.15619 q 3.85235,-5.89526 9.04719,-8.81371 5.2532,-2.91844 12.08236,-2.91844 11.2652,0 17.04372,7.00427 5.77853,6.9459 5.77853,20.48749 z"
         style=""
         id="path4197" />
      <path
         d="m 1041.3996,780.04493 0,10.1562 q -4.5528,-2.33476 -9.4557,-3.50214 -4.903,-1.16738 -10.1562,-1.16738 -7.9966,0 -12.024,2.4515 -3.9691,2.45149 -3.9691,7.35448 0,3.73561 2.8601,5.89526 2.86,2.10128 11.4986,4.02745 l 3.6773,0.81717 q 11.4403,2.45149 16.2265,6.9459 4.8447,4.43604 4.8447,12.43258 0,9.10555 -7.2378,14.41712 -7.1794,5.31157 -19.7871,5.31157 -5.2532,0 -10.9733,-1.05064 -5.6618,-0.99227 -11.96564,-3.03518 l 0,-11.0901 q 5.95364,3.09356 11.73214,4.66952 5.7785,1.51759 11.4403,1.51759 7.588,0 11.6738,-2.56823 4.0858,-2.6266 4.0858,-7.35449 0,-4.37766 -2.9768,-6.71242 -2.9184,-2.33476 -12.8995,-4.49441 l -3.7356,-0.87553 q -9.9811,-2.10128 -14.41715,-6.42058 -4.43603,-4.37767 -4.43603,-11.96563 0,-9.22229 6.53728,-14.24201 6.5374,-5.01973 18.5613,-5.01973 5.9537,0 11.2069,0.87553 5.2532,0.87554 9.6892,2.6266 z"
         style=""
         id="path4199" />
      <path
         d="m 1074.3197,766.03639 0,32.74497 14.8257,0 q 8.23,0 12.7244,-4.26094 4.4944,-4.26093 4.4944,-12.14073 0,-7.82143 -4.4944,-12.08236 -4.4944,-4.26094 -12.7244,-4.26094 l -14.8257,0 z m -11.7905,-9.68923 26.6162,0 q 14.6506,0 22.1218,6.65405 7.5296,6.59569 7.5296,19.37848 0,12.89953 -7.5296,19.49522 -7.4712,6.59569 -22.1218,6.59569 l -14.8257,0 0,35.02134 -11.7905,0 0,-87.14478 z"
         style=""
         id="path4201" />
      <path
         d="m 1170.1031,788.15821 q -1.8095,-1.05064 -3.9691,-1.51759 -2.1013,-0.52532 -4.6695,-0.52532 -9.1056,0 -14.0086,5.95363 -4.8446,5.89526 -4.8446,16.98535 l 0,34.43766 -10.7982,0 0,-65.37318 10.7982,0 0,10.15619 q 3.3854,-5.95363 8.8137,-8.81371 5.4283,-2.91844 13.1914,-2.91844 1.109,0 2.4515,0.17511 1.3425,0.11673 2.9768,0.40858 l 0.058,11.03172 z"
         style=""
         id="path4203" />
      <path
         d="m 1233.7252,804.03456 0,39.45738 -10.7399,0 0,-39.10717 q 0,-9.28066 -3.6189,-13.8918 -3.6189,-4.61114 -10.8566,-4.61114 -8.697,0 -13.7167,5.54504 -5.0197,5.54505 -5.0197,15.11755 l 0,36.94752 -10.7983,0 0,-65.37318 10.7983,0 0,10.15619 q 3.8523,-5.89526 9.0471,-8.81371 5.2533,-2.91844 12.0824,-2.91844 11.2652,0 17.0437,7.00427 5.7786,6.9459 5.7786,20.48749 z"
         style=""
         id="path4205" />
      <path
         d="m 1266.0032,759.55745 0,18.56131 22.1218,0 0,8.34675 -22.1218,0 0,35.4883 q 0,7.99655 2.1596,10.27293 2.218,2.27639 8.9305,2.27639 l 11.0317,0 0,8.98881 -11.0317,0 q -12.4326,0 -17.1605,-4.61114 -4.7279,-4.66951 -4.7279,-16.92699 l 0,-35.4883 -7.8798,0 0,-8.34675 7.8798,0 0,-18.56131 10.7983,0 z"
         style=""
         id="path4207" />
    </g>
  </g>
</svg>
