<?xml version="1.0" encoding="UTF-8" standalone="no"?>
<!-- Created with Inkscape (http://www.inkscape.org/) -->

<svg
   xmlns:dc="http://purl.org/dc/elements/1.1/"
   xmlns:cc="http://creativecommons.org/ns#"
   xmlns:rdf="http://www.w3.org/1999/02/22-rdf-syntax-ns#"
   xmlns:svg="http://www.w3.org/2000/svg"
   xmlns="http://www.w3.org/2000/svg"
   xmlns:sodipodi="http://sodipodi.sourceforge.net/DTD/sodipodi-0.dtd"
   xmlns:inkscape="http://www.inkscape.org/namespaces/inkscape"
   width="240mm"
   height="160mm"
   viewBox="0 0 850.3937 566.92913"
   id="svg2"
   version="1.1"
   inkscape:version="0.91 r13725"
   sodipodi:docname="Shaft Connector.svg">
  <defs
     id="defs4" />
  <sodipodi:namedview
     id="base"
     pagecolor="#ffffff"
     bordercolor="#666666"
     borderopacity="1.0"
     inkscape:pageopacity="0.0"
     inkscape:pageshadow="2"
     inkscape:zoom="1.9428346"
     inkscape:cx="487.69613"
     inkscape:cy="292.83678"
     inkscape:document-units="px"
     inkscape:current-layer="layer4"
     showgrid="false"
     inkscape:window-width="1280"
     inkscape:window-height="751"
     inkscape:window-x="1"
     inkscape:window-y="1"
     inkscape:window-maximized="0" />
  <metadata
     id="metadata7">
    <rdf:RDF>
      <cc:Work
         rdf:about="">
        <dc:format>image/svg+xml</dc:format>
        <dc:type
           rdf:resource="http://purl.org/dc/dcmitype/StillImage" />
        <dc:title />
      </cc:Work>
    </rdf:RDF>
  </metadata>
  <g
     inkscape:groupmode="layer"
     id="layer4"
     inkscape:label="shaft connector"
     style="display:inline"
     transform="translate(0,-485.43307)"
     sodipodi:insensitive="true">
    <rect
       style="fill:none;fill-opacity:1;stroke:#000000;stroke-width:0.8420558;stroke-miterlimit:4;stroke-dasharray:none;stroke-opacity:1"
       id="rect6130"
       width="549.62134"
       height="149.03984"
       x="218.20331"
       y="703.36664" />
    <g
       id="layer1-8"
       inkscape:label="Layer 1"
       transform="translate(510.45545,-199.51561)">
      <g
         transform="translate(14.704721,-14.704688)"
         id="g6726">
        <path
           style="fill:none;fill-opacity:1;stroke:#000000;stroke-width:0.10901672;stroke-miterlimit:4;stroke-dasharray:none;stroke-opacity:1"
           d="m 10.575412,1047.0473 a 5.2604523,5.2604523 0 0 1 -5.2604516,5.2604 5.2604523,5.2604523 0 0 1 -5.26045204,-5.2604 5.2604523,5.2604523 0 0 1 5.26045204,-5.2605 5.2604523,5.2604523 0 0 1 5.2604516,5.2605 z"
           id="path6685"
           inkscape:connector-curvature="0" />
        <path
           id="path6719"
           d="m 120.41794,937.20478 a 5.2604523,5.2604523 0 0 1 -5.26045,5.2604 5.2604523,5.2604523 0 0 1 -5.26046,-5.2604 5.2604523,5.2604523 0 0 1 5.26046,-5.2605 5.2604523,5.2604523 0 0 1 5.26045,5.2605 z"
           style="fill:none;fill-opacity:1;stroke:#000000;stroke-width:0.10901672;stroke-miterlimit:4;stroke-dasharray:none;stroke-opacity:1"
           inkscape:connector-curvature="0" />
        <path
           inkscape:connector-curvature="0"
           style="fill:none;fill-opacity:1;stroke:#000000;stroke-width:0.10901672;stroke-miterlimit:4;stroke-dasharray:none;stroke-opacity:1"
           d="m 10.575418,937.20478 a 5.2604523,5.2604523 0 0 1 -5.2604496,5.2604 5.2604523,5.2604523 0 0 1 -5.26046004,-5.2604 5.2604523,5.2604523 0 0 1 5.26046004,-5.2605 5.2604523,5.2604523 0 0 1 5.2604496,5.2605 z"
           id="path6721" />
        <path
           id="path6723"
           d="m 120.41794,1047.0473 a 5.2604523,5.2604523 0 0 1 -5.26045,5.2604 5.2604523,5.2604523 0 0 1 -5.26046,-5.2604 5.2604523,5.2604523 0 0 1 5.26046,-5.2605 5.2604523,5.2604523 0 0 1 5.26045,5.2605 z"
           style="fill:none;fill-opacity:1;stroke:#000000;stroke-width:0.10901672;stroke-miterlimit:4;stroke-dasharray:none;stroke-opacity:1"
           inkscape:connector-curvature="0" />
      </g>
      <circle
         r="44.836113"
         cy="977.42133"
         cx="74.940948"
         id="path6732"
         style="fill:none;fill-opacity:1;stroke:#000000;stroke-width:0.32777646;stroke-miterlimit:4;stroke-dasharray:none;stroke-opacity:1" />
    </g>
    <g
       id="g6876"
       transform="translate(0,1.8107985)">
      <path
         inkscape:connector-curvature="0"
         id="path6867"
         d="m 709.57606,727.72705 a 6.3572106,6.3572106 0 0 1 -6.35721,6.35721 6.3572106,6.3572106 0 0 1 -6.35721,-6.35721 6.3572106,6.3572106 0 0 1 6.35721,-6.35721 6.3572106,6.3572106 0 0 1 6.35721,6.35721 z"
         style="fill:none;fill-opacity:1;stroke:#000000;stroke-width:0.39581478;stroke-miterlimit:4;stroke-dasharray:none;stroke-opacity:1" />
      <path
         inkscape:connector-curvature="0"
         style="fill:none;fill-opacity:1;stroke:#000000;stroke-width:0.39581478;stroke-miterlimit:4;stroke-dasharray:none;stroke-opacity:1"
         d="m 754.37624,776.07577 a 6.3572106,6.3572106 0 0 1 -6.35721,6.35721 6.3572106,6.3572106 0 0 1 -6.35721,-6.35721 6.3572106,6.3572106 0 0 1 6.35721,-6.35721 6.3572106,6.3572106 0 0 1 6.35721,6.35721 z"
         id="path6872" />
      <path
         inkscape:connector-curvature="0"
         id="path6874"
         d="m 709.57606,824.42447 a 6.3572106,6.3572106 0 0 1 -6.35721,6.35721 6.3572106,6.3572106 0 0 1 -6.35721,-6.35721 6.3572106,6.3572106 0 0 1 6.35721,-6.35721 6.3572106,6.3572106 0 0 1 6.35721,6.35721 z"
         style="fill:none;fill-opacity:1;stroke:#000000;stroke-width:0.39581478;stroke-miterlimit:4;stroke-dasharray:none;stroke-opacity:1" />
    </g>
  </g>
</svg>
