<?xml version="1.0" encoding="UTF-8" standalone="no"?>
<!-- Created with Inkscape (http://www.inkscape.org/) -->

<svg
   xmlns:dc="http://purl.org/dc/elements/1.1/"
   xmlns:cc="http://creativecommons.org/ns#"
   xmlns:rdf="http://www.w3.org/1999/02/22-rdf-syntax-ns#"
   xmlns:svg="http://www.w3.org/2000/svg"
   xmlns="http://www.w3.org/2000/svg"
   xmlns:sodipodi="http://sodipodi.sourceforge.net/DTD/sodipodi-0.dtd"
   xmlns:inkscape="http://www.inkscape.org/namespaces/inkscape"
   width="240mm"
   height="160mm"
   viewBox="0 0 850.3937 566.92913"
   id="svg2"
   version="1.1"
   inkscape:version="0.91 r13725"
   sodipodi:docname="master gearbox.svg">
  <defs
     id="defs4" />
  <sodipodi:namedview
     id="base"
     pagecolor="#ffffff"
     bordercolor="#666666"
     borderopacity="1.0"
     inkscape:pageopacity="0.0"
     inkscape:pageshadow="2"
     inkscape:zoom="0.56361382"
     inkscape:cx="181.32198"
     inkscape:cy="221.8662"
     inkscape:document-units="px"
     inkscape:current-layer="layer4"
     showgrid="false"
     inkscape:window-width="1280"
     inkscape:window-height="751"
     inkscape:window-x="0"
     inkscape:window-y="1"
     inkscape:window-maximized="1" />
  <metadata
     id="metadata7">
    <rdf:RDF>
      <cc:Work
         rdf:about="">
        <dc:format>image/svg+xml</dc:format>
        <dc:type
           rdf:resource="http://purl.org/dc/dcmitype/StillImage" />
        <dc:title></dc:title>
      </cc:Work>
    </rdf:RDF>
  </metadata>
  <g
     inkscape:label="small gear"
     inkscape:groupmode="layer"
     id="layer1"
     style="display:inline"
     transform="translate(0,-485.43307)"
     sodipodi:insensitive="true">
    <g
       id="g5437"
       transform="matrix(0.10471953,0,0,0.10471953,32.656548,245.04786)"
       style="stroke:#000000;stroke-opacity:1">
      <path
         style="fill:none;fill-opacity:0.2;stroke:#000000;stroke-miterlimit:10;stroke-opacity:1"
         d="m 4922.1523,5119.2407 -2.53,0.78 -2.55,0.6 -2.57,0.46 -5.1,1.21 -5.05,1.64 -5.03,1.96 -4.98,2.24 -4.96,2.48 -4.92,2.7 -4.88,2.92 -4.84,3.12 -4.8,3.32 -4.76,3.51 -4.71,3.69 -3.5,2.88 10.18,47.91 4.37,1.21 5.81,1.46 5.77,1.26 5.74,1.08 5.69,0.88 5.65,0.69 5.59,0.47 5.53,0.25 5.47,0.01 5.39,-0.25 5.28,-0.56 5.16,-0.96 2.52,-0.63 2.58,-0.49 2.63,-0.32 2.72,-0.07 1.41,0.08 1.44,0.21 1.51,0.38 1.63,0.7 2.29,2.52 18.74,42.08 0.34,3.39 -0.57,1.68 -0.73,1.38 -0.81,1.21 -0.88,1.1 -1.87,1.97 -2,1.75 -2.09,1.58 -2.16,1.46 -4.16,3.18 -3.95,3.56 -3.79,3.84 -3.65,4.07 -3.52,4.28 -3.39,4.47 -3.27,4.65 -3.16,4.82 -3.03,4.99 -2.93,5.14 -2.8,5.28 -2.02,4.06 28.78,39.63 4.49,-0.68 5.9,-1.03 5.78,-1.19 5.68,-1.35 5.56,-1.51 5.44,-1.67 5.3,-1.84 5.16,-2.03 5,-2.21 4.82,-2.42 4.6,-2.66 4.31,-2.98 2.06,-1.6 2.15,-1.49 2.28,-1.36 2.45,-1.18 1.32,-0.49 1.4,-0.4 1.54,-0.27 1.77,-0.02 3.12,1.37 34.23,30.82 1.69,2.96 0.16,1.77 -0.1,1.55 -0.25,1.44 -0.35,1.36 -0.92,2.56 -1.11,2.41 -1.26,2.3 -1.38,2.21 -2.51,4.6 -2.16,4.86 -1.91,5.04 -1.67,5.21 -1.48,5.34 -1.28,5.46 -1.09,5.58 -0.92,5.69 -0.75,5.79 -0.58,5.88 -0.41,5.97 -0.2,4.53 42.42,24.49 3.82,-2.44 4.97,-3.34 4.8,-3.44 4.64,-3.54 4.47,-3.64 4.28,-3.74 4.1,-3.84 3.89,-3.95 3.66,-4.05 3.42,-4.17 3.12,-4.3 2.73,-4.48 1.23,-2.3 1.36,-2.24 1.53,-2.17 1.76,-2.07 1,-0.98 1.12,-0.94 1.3,-0.87 1.61,-0.74 3.4,-0.02 43.81,14.24 2.75,2.02 0.87,1.54 0.53,1.46 0.36,1.42 0.23,1.39 0.21,2.71 -0.04,2.65 -0.22,2.61 -0.36,2.58 -0.42,5.23 0,5.31 0.31,5.39 0.59,5.43 0.82,5.48 1.06,5.51 1.26,5.55 1.48,5.57 1.67,5.59 1.86,5.61 2.06,5.62 1.66,4.22 48.71,5.12 2.5,-3.78 3.18,-5.07 2.99,-5.1 2.8,-5.12 2.6,-5.15 2.39,-5.16 2.18,-5.17 1.94,-5.19 1.7,-5.19 1.43,-5.2 1.1,-5.2 0.68,-5.2 0.18,-2.6 0.33,-2.6 0.52,-2.6 0.76,-2.61 0.52,-1.31 0.64,-1.31 0.83,-1.32 1.17,-1.33 3.11,-1.4 45.81,-4.82 3.32,0.73 1.43,1.06 1.08,1.11 0.9,1.15 0.78,1.18 1.29,2.39 1.05,2.44 0.86,2.47 0.72,2.5 1.74,4.95 2.16,4.86 2.48,4.79 2.74,4.72 2.98,4.67 3.21,4.61 3.41,4.55 3.62,4.49 3.8,4.43 3.98,4.36 4.16,4.3 3.24,3.18 46.58,-15.13 0.75,-4.48 0.84,-5.92 0.65,-5.87 0.48,-5.82 0.28,-5.76 0.09,-5.68 -0.12,-5.62 -0.33,-5.53 -0.56,-5.43 -0.81,-5.33 -1.11,-5.2 -1.5,-5.03 -0.88,-2.45 -0.76,-2.5 -0.59,-2.59 -0.36,-2.7 -0.06,-1.4 0.05,-1.46 0.22,-1.54 0.53,-1.7 2.27,-2.54 39.89,-23.03 3.33,-0.69 1.73,0.39 1.45,0.58 1.29,0.68 1.19,0.76 2.15,1.66 1.95,1.8 1.79,1.91 1.68,1.99 3.6,3.81 3.95,3.56 4.21,3.37 4.43,3.2 4.62,3.05 4.81,2.91 4.96,2.77 5.13,2.63 5.27,2.5 5.42,2.37 5.55,2.23 4.25,1.59 36.4,-32.77 -1.14,-4.39 -1.64,-5.76 -1.79,-5.63 -1.94,-5.51 -2.08,-5.37 -2.23,-5.23 -2.39,-5.08 -2.55,-4.92 -2.72,-4.74 -2.91,-4.54 -3.13,-4.3 -3.41,-3.98 -1.81,-1.87 -1.71,-1.99 -1.59,-2.12 -1.43,-2.32 -0.62,-1.26 -0.55,-1.35 -0.42,-1.5 -0.21,-1.76 1.03,-3.25 27.08,-37.26 2.77,-1.99 1.74,-0.35 1.55,-0.06 1.46,0.1 1.39,0.21 2.64,0.64 2.52,0.86 2.41,1.01 2.34,1.14 4.84,2.02 5.06,1.64 5.22,1.37 5.34,1.12 5.47,0.91 5.57,0.7 5.66,0.51 5.76,0.32 5.83,0.13 5.91,-0.04 5.98,-0.21 4.53,-0.28 19.92,-44.74 -2.82,-3.55 -3.85,-4.59 -3.92,-4.42 -4.01,-4.24 -4.08,-4.06 -4.17,-3.87 -4.25,-3.67 -4.33,-3.46 -4.42,-3.22 -4.5,-2.96 -4.61,-2.66 -4.73,-2.25 -2.41,-0.98 -2.38,-1.11 -2.31,-1.3 -2.25,-1.53 -1.08,-0.9 -1.05,-1.01 -1,-1.2 -0.9,-1.52 -0.38,-3.39 9.58,-45.06 1.72,-2.94 1.44,-1.02 1.4,-0.69 1.37,-0.5 1.36,-0.38 2.67,-0.49 2.65,-0.24 2.62,-0.05 2.6,0.09 5.24,-0.13 5.29,-0.56 5.32,-0.87 5.34,-1.15 5.36,-1.39 5.38,-1.63 5.38,-1.84 5.39,-2.05 5.38,-2.24 5.39,-2.44 5.37,-2.63 4.03,-2.1 0,-48.98 -4.03,-2.09 -5.37,-2.63 -5.39,-2.44 -5.38,-2.25 -5.39,-2.04 -5.38,-1.84 -5.38,-1.63 -5.36,-1.39 -5.34,-1.15 -5.32,-0.87 -5.29,-0.56 -5.24,-0.13 -2.6,0.09 -2.62,-0.05 -2.65,-0.24 -2.67,-0.5 -1.36,-0.37 -1.37,-0.5 -1.4,-0.69 -1.44,-1.02 -1.72,-2.94 -9.58,-45.06 0.38,-3.39 0.9,-1.52 1,-1.2 1.05,-1.01 1.08,-0.9 2.25,-1.53 2.31,-1.3 2.38,-1.12 2.41,-0.97 4.73,-2.25 4.61,-2.66 4.5,-2.96 4.42,-3.22 4.33,-3.46 4.25,-3.67 4.17,-3.87 4.08,-4.06 4.01,-4.24 3.92,-4.42 3.85,-4.59 2.82,-3.55 -19.92,-44.74 -4.53,-0.28 -5.98,-0.22 -5.91,-0.04 -5.83,0.14 -5.76,0.32 -5.66,0.51 -5.57,0.7 -5.47,0.91 -5.34,1.12 -5.22,1.37 -5.06,1.64 -4.84,2.02 -2.34,1.14 -2.41,1.01 -2.52,0.86 -2.64,0.64 -1.39,0.2 -1.46,0.11 -1.55,-0.06 -1.74,-0.35 -2.77,-1.99 -27.08,-37.27 -1.03,-3.24 0.21,-1.76 0.42,-1.5 0.55,-1.35 0.62,-1.26 1.43,-2.32 1.59,-2.12 1.71,-1.99 1.81,-1.87 3.41,-3.98 3.13,-4.3 2.91,-4.54 2.72,-4.74 2.55,-4.92 2.39,-5.08 2.23,-5.23 2.08,-5.37 1.94,-5.51 1.79,-5.63 1.64,-5.76 1.14,-4.39 -36.4,-32.77 -4.25,1.59 -5.55,2.23 -5.42,2.37 -5.27,2.5 -5.13,2.63 -4.96,2.77 -4.81,2.91 -4.62,3.05 -4.43,3.2 -4.21,3.37 -3.95,3.56 -3.6,3.81 -1.68,1.99 -1.79,1.91 -1.95,1.8 -2.15,1.66 -1.19,0.76 -1.29,0.68 -1.45,0.58 -1.73,0.39 -3.33,-0.69 -39.89,-23.03 -2.27,-2.55 -0.53,-1.69 -0.22,-1.54 -0.05,-1.46 0.06,-1.4 0.36,-2.7 0.59,-2.59 0.76,-2.51 0.88,-2.44 1.5,-5.03 1.11,-5.2 0.81,-5.33 0.56,-5.44 0.33,-5.53 0.12,-5.61 -0.09,-5.69 -0.28,-5.75 -0.48,-5.82 -0.65,-5.87 -0.84,-5.93 -0.75,-4.47 -46.58,-15.14 -3.24,3.19 -4.16,4.3 -3.98,4.36 -3.8,4.43 -3.62,4.49 -3.41,4.55 -3.21,4.61 -2.98,4.66 -2.74,4.73 -2.48,4.79 -2.16,4.86 -1.74,4.94 -0.72,2.51 -0.86,2.47 -1.05,2.44 -1.29,2.39 -0.78,1.18 -0.9,1.15 -1.08,1.11 -1.43,1.06 -3.32,0.73 -45.81,-4.82 -3.11,-1.4 -1.17,-1.33 -0.83,-1.32 -0.64,-1.31 -0.52,-1.31 -0.76,-2.61 -0.52,-2.6 -0.33,-2.6 -0.18,-2.6 -0.68,-5.2 -1.1,-5.2 -1.43,-5.2 -1.7,-5.19 -1.94,-5.19 -2.18,-5.17 -2.39,-5.16 -2.6,-5.15 -2.8,-5.12 -2.99,-5.1 -3.18,-5.07 -2.5,-3.78 -48.71,5.12 -1.66,4.22 -2.06,5.62 -1.86,5.61 -1.67,5.59 -1.48,5.57 -1.26,5.55 -1.06,5.51 -0.82,5.48 -0.59,5.43 -0.31,5.38 0,5.32 0.42,5.23 0.36,2.58 0.22,2.61 0.04,2.65 -0.21,2.71 -0.23,1.39 -0.36,1.42 -0.53,1.46 -0.87,1.54 -2.75,2.02 -43.81,14.24 -3.4,-0.02 -1.61,-0.74 -1.3,-0.87 -1.12,-0.94 -1,-0.98 -1.76,-2.07 -1.53,-2.17 -1.36,-2.24 -1.23,-2.3 -2.73,-4.48 -3.12,-4.3 -3.42,-4.17 -3.66,-4.05 -3.89,-3.95 -4.1,-3.84 -4.28,-3.74 -4.47,-3.64 -4.64,-3.54 -4.8,-3.44 -4.97,-3.35 -3.82,-2.43 -42.42,24.49 0.2,4.53 0.41,5.97 0.58,5.88 0.75,5.79 0.92,5.69 1.09,5.58 1.28,5.46 1.48,5.34 1.67,5.21 1.91,5.04 2.16,4.86 2.51,4.6 1.38,2.21 1.26,2.3 1.11,2.41 0.92,2.56 0.35,1.36 0.25,1.44 0.1,1.55 -0.16,1.77 -1.69,2.96 -34.23,30.82 -3.12,1.37 -1.77,-0.02 -1.54,-0.27 -1.4,-0.4 -1.32,-0.49 -2.45,-1.18 -2.28,-1.36 -2.15,-1.49 -2.06,-1.6 -4.31,-2.98 -4.6,-2.66 -4.82,-2.42 -5,-2.21 -5.16,-2.03 -5.3,-1.84 -5.44,-1.68 -5.56,-1.5 -5.68,-1.35 -5.78,-1.19 -5.9,-1.03 -4.49,-0.68 -28.78,39.63 2.02,4.06 2.8,5.28 2.93,5.14 3.03,4.99 3.16,4.82 3.27,4.65 3.39,4.47 3.52,4.28 3.65,4.07 3.79,3.84 3.95,3.55 4.16,3.19 2.16,1.46 2.09,1.58 2,1.75 1.87,1.97 0.88,1.1 0.81,1.21 0.73,1.38 0.57,1.68 -0.34,3.39 -18.74,42.08 -2.29,2.52 -1.63,0.7 -1.51,0.38 -1.44,0.21 -1.41,0.08 -2.72,-0.08 -2.63,-0.31 -2.58,-0.49 -2.52,-0.63 -5.16,-0.96 -5.28,-0.56 -5.39,-0.25 -5.47,0.01 -5.53,0.25 -5.59,0.47 -5.65,0.68 -5.69,0.89 -5.74,1.08 -5.77,1.26 -5.81,1.46 -4.37,1.21 -10.18,47.91 3.5,2.88 4.71,3.69 4.76,3.51 4.8,3.31 4.84,3.13 4.88,2.92 4.92,2.7 4.96,2.48 4.98,2.24 5.03,1.96 5.05,1.64 5.1,1.21 2.57,0.46 2.55,0.6 2.53,0.78 2.52,1.04 1.25,0.65 1.23,0.77 1.23,0.97 1.2,1.3 1.07,3.23 0,46.07 -1.07,3.23 -1.2,1.3 -1.23,0.97 -1.23,0.77 -1.25,0.65 z"
         id="G2Gear"
         inkscape:connector-curvature="0" />
      <g
         id="layer1-0"
         inkscape:label="Layer 1"
         transform="matrix(9.5493171,0,0,9.5493171,5103.6867,-5099.7639)">
        <path
           id="path6050"
           d="m 23.767589,1059.9962 -10.548828,0 a 8.6829212,8.6829264 0 0 0 -3.4042965,6.8867 8.6829212,8.6829264 0 0 0 8.6816405,8.6836 8.6829212,8.6829264 0 0 0 8.683594,-8.6836 8.6829212,8.6829264 0 0 0 -3.41211,-6.8867 z"
           style="fill:#ffffff;fill-opacity:1;stroke:#000000;stroke-width:0.35069302;stroke-miterlimit:4;stroke-dasharray:none;stroke-opacity:1"
           inkscape:connector-curvature="0" />
      </g>
    </g>
  </g>
  <g
     inkscape:groupmode="layer"
     id="layer4"
     inkscape:label="shaft connector"
     style="display:inline"
     transform="translate(0,-485.43307)"
     sodipodi:insensitive="true">
    <rect
       style="fill:none;fill-opacity:1;stroke:#000000;stroke-width:0.8420558;stroke-miterlimit:4;stroke-dasharray:none;stroke-opacity:1"
       id="rect6130"
       width="549.62134"
       height="149.03984"
       x="218.20331"
       y="703.36664" />
    <g
       id="layer1-8"
       inkscape:label="Layer 1"
       transform="translate(510.45545,-199.51561)">
      <g
         transform="translate(14.704721,-14.704688)"
         id="g6726">
        <path
           style="fill:none;fill-opacity:1;stroke:#000000;stroke-width:0.10901672;stroke-miterlimit:4;stroke-dasharray:none;stroke-opacity:1"
           d="m 10.575412,1047.0473 a 5.2604523,5.2604523 0 0 1 -5.2604516,5.2604 5.2604523,5.2604523 0 0 1 -5.26045204,-5.2604 5.2604523,5.2604523 0 0 1 5.26045204,-5.2605 5.2604523,5.2604523 0 0 1 5.2604516,5.2605 z"
           id="path6685"
           inkscape:connector-curvature="0" />
        <path
           id="path6719"
           d="m 120.41794,937.20478 a 5.2604523,5.2604523 0 0 1 -5.26045,5.2604 5.2604523,5.2604523 0 0 1 -5.26046,-5.2604 5.2604523,5.2604523 0 0 1 5.26046,-5.2605 5.2604523,5.2604523 0 0 1 5.26045,5.2605 z"
           style="fill:none;fill-opacity:1;stroke:#000000;stroke-width:0.10901672;stroke-miterlimit:4;stroke-dasharray:none;stroke-opacity:1"
           inkscape:connector-curvature="0" />
        <path
           inkscape:connector-curvature="0"
           style="fill:none;fill-opacity:1;stroke:#000000;stroke-width:0.10901672;stroke-miterlimit:4;stroke-dasharray:none;stroke-opacity:1"
           d="m 10.575418,937.20478 a 5.2604523,5.2604523 0 0 1 -5.2604496,5.2604 5.2604523,5.2604523 0 0 1 -5.26046004,-5.2604 5.2604523,5.2604523 0 0 1 5.26046004,-5.2605 5.2604523,5.2604523 0 0 1 5.2604496,5.2605 z"
           id="path6721" />
        <path
           id="path6723"
           d="m 120.41794,1047.0473 a 5.2604523,5.2604523 0 0 1 -5.26045,5.2604 5.2604523,5.2604523 0 0 1 -5.26046,-5.2604 5.2604523,5.2604523 0 0 1 5.26046,-5.2605 5.2604523,5.2604523 0 0 1 5.26045,5.2605 z"
           style="fill:none;fill-opacity:1;stroke:#000000;stroke-width:0.10901672;stroke-miterlimit:4;stroke-dasharray:none;stroke-opacity:1"
           inkscape:connector-curvature="0" />
      </g>
      <circle
         r="44.836113"
         cy="977.42133"
         cx="74.940948"
         id="path6732"
         style="fill:none;fill-opacity:1;stroke:#000000;stroke-width:0.32777646;stroke-miterlimit:4;stroke-dasharray:none;stroke-opacity:1" />
    </g>
    <g
       id="g6876"
       transform="translate(0,1.8107985)">
      <path
         inkscape:connector-curvature="0"
         id="path6867"
         d="m 709.57606,727.72705 a 6.3572106,6.3572106 0 0 1 -6.35721,6.35721 6.3572106,6.3572106 0 0 1 -6.35721,-6.35721 6.3572106,6.3572106 0 0 1 6.35721,-6.35721 6.3572106,6.3572106 0 0 1 6.35721,6.35721 z"
         style="fill:none;fill-opacity:1;stroke:#000000;stroke-width:0.39581478;stroke-miterlimit:4;stroke-dasharray:none;stroke-opacity:1" />
      <path
         inkscape:connector-curvature="0"
         style="fill:none;fill-opacity:1;stroke:#000000;stroke-width:0.39581478;stroke-miterlimit:4;stroke-dasharray:none;stroke-opacity:1"
         d="m 754.37624,776.07577 a 6.3572106,6.3572106 0 0 1 -6.35721,6.35721 6.3572106,6.3572106 0 0 1 -6.35721,-6.35721 6.3572106,6.3572106 0 0 1 6.35721,-6.35721 6.3572106,6.3572106 0 0 1 6.35721,6.35721 z"
         id="path6872" />
      <path
         inkscape:connector-curvature="0"
         id="path6874"
         d="m 709.57606,824.42447 a 6.3572106,6.3572106 0 0 1 -6.35721,6.35721 6.3572106,6.3572106 0 0 1 -6.35721,-6.35721 6.3572106,6.3572106 0 0 1 6.35721,-6.35721 6.3572106,6.3572106 0 0 1 6.35721,6.35721 z"
         style="fill:none;fill-opacity:1;stroke:#000000;stroke-width:0.39581478;stroke-miterlimit:4;stroke-dasharray:none;stroke-opacity:1" />
    </g>
  </g>
  <g
     transform="translate(0,-485.43307)"
     style="display:inline"
     inkscape:label="gear guide"
     id="g6881"
     inkscape:groupmode="layer"
     sodipodi:insensitive="true">
    <rect
       y="703.22552"
       x="525.43787"
       height="149.32201"
       width="242.52786"
       id="rect6883"
       style="fill:none;fill-opacity:1;stroke:#000000;stroke-width:0.55988729;stroke-miterlimit:4;stroke-dasharray:none;stroke-opacity:1" />
    <g
       transform="translate(0,1.8107985)"
       id="g6899">
      <path
         style="fill:none;fill-opacity:1;stroke:#000000;stroke-width:0.39581478;stroke-miterlimit:4;stroke-dasharray:none;stroke-opacity:1"
         d="m 709.57606,727.72705 a 6.3572106,6.3572106 0 0 1 -6.35721,6.35721 6.3572106,6.3572106 0 0 1 -6.35721,-6.35721 6.3572106,6.3572106 0 0 1 6.35721,-6.35721 6.3572106,6.3572106 0 0 1 6.35721,6.35721 z"
         id="path6901"
         inkscape:connector-curvature="0" />
      <path
         id="path6903"
         d="m 754.37624,776.07577 a 6.3572106,6.3572106 0 0 1 -6.35721,6.35721 6.3572106,6.3572106 0 0 1 -6.35721,-6.35721 6.3572106,6.3572106 0 0 1 6.35721,-6.35721 6.3572106,6.3572106 0 0 1 6.35721,6.35721 z"
         style="fill:none;fill-opacity:1;stroke:#000000;stroke-width:0.39581478;stroke-miterlimit:4;stroke-dasharray:none;stroke-opacity:1"
         inkscape:connector-curvature="0" />
      <path
         style="fill:none;fill-opacity:1;stroke:#000000;stroke-width:0.39581478;stroke-miterlimit:4;stroke-dasharray:none;stroke-opacity:1"
         d="m 709.57606,824.42447 a 6.3572106,6.3572106 0 0 1 -6.35721,6.35721 6.3572106,6.3572106 0 0 1 -6.35721,-6.35721 6.3572106,6.3572106 0 0 1 6.35721,-6.35721 6.3572106,6.3572106 0 0 1 6.35721,6.35721 z"
         id="path6905"
         inkscape:connector-curvature="0" />
    </g>
    <path
       style="display:inline;fill:none;fill-opacity:1;stroke:#000000;stroke-width:0.76421732;stroke-miterlimit:4;stroke-dasharray:none;stroke-opacity:1"
       d="m 594.97143,777.887 a 9.361986,9.3619834 0 0 1 -9.36198,9.36199 9.361986,9.3619834 0 0 1 -9.36199,-9.36199 9.361986,9.3619834 0 0 1 9.36199,-9.36198 9.361986,9.3619834 0 0 1 9.36198,9.36198 z"
       id="path6907"
       inkscape:connector-curvature="0" />
  </g>
  <g
     inkscape:groupmode="layer"
     id="layer3"
     inkscape:label="large gear"
     style="display:inline"
     transform="translate(0,-485.43307)"
     sodipodi:insensitive="true">
    <path
       transform="matrix(0.10471953,0,0,0.10471953,32.656548,245.04786)"
       style="display:inline;fill:none;fill-opacity:0.2;stroke:#000000;stroke-miterlimit:10;stroke-opacity:1"
       d="m 4929.7623,5114.2507 0,-52.01 -4.88,-1.93 -19.55,-7.39 -19.57,-6.91 -19.57,-6.38 -9.79,-2.99 -4.9,-1.45 -1.68,-53.63 4.79,-1.75 9.59,-3.6 19.13,-7.6 19.09,-8.12 19.05,-8.61 4.75,-2.22 -3.26,-51.92 -5,-1.61 -19.97,-6.16 -19.96,-5.66 -19.94,-5.14 -9.96,-2.37 -4.97,-1.13 -5.05,-53.43 4.67,-2.04 9.34,-4.2 18.62,-8.79 18.54,-9.3 18.47,-9.78 4.61,-2.52 -6.52,-51.61 -5.09,-1.3 -20.32,-4.89 -20.28,-4.39 -20.22,-3.88 -10.08,-1.74 -5.04,-0.82 -8.4,-53 4.54,-2.34 9.06,-4.77 18.03,-9.94 17.92,-10.45 17.82,-10.92 4.44,-2.81 -9.75,-51.1 -5.16,-0.97 -20.59,-3.6 -20.51,-3.12 -20.42,-2.6 -10.18,-1.1 -5.08,-0.51 -11.7,-52.37 4.38,-2.61 8.74,-5.33 17.37,-11.06 17.23,-11.55 17.1,-12.02 4.25,-3.08 -12.94,-50.38 -5.21,-0.65 -20.77,-2.3 -20.67,-1.82 -20.54,-1.32 -10.23,-0.46 -5.1,-0.18 -14.97,-51.54 4.21,-2.88 8.38,-5.87 16.65,-12.12 16.47,-12.61 16.31,-13.08 4.05,-3.34 -16.08,-49.47 -5.24,-0.32 -20.87,-0.99 -20.74,-0.52 -20.59,-0.02 -10.24,0.18 -5.1,0.14 -18.18,-50.49 4.02,-3.15 8,-6.38 15.85,-13.14 15.65,-13.62 15.46,-14.08 3.83,-3.58 -19.15,-48.37 -5.25,0.01 -20.9,0.32 -20.73,0.79 -20.55,1.26 -10.2,0.83 -5.08,0.46 -21.32,-49.25 3.82,-3.39 7.58,-6.88 14.99,-14.11 14.77,-14.57 14.54,-15.02 3.6,-3.82 -22.15,-47.07 -5.24,0.34 -20.84,1.63 -20.64,2.09 -20.43,2.55 -10.13,1.47 -5.04,0.78 -24.36,-47.82 3.59,-3.62 7.14,-7.34 14.07,-15.02 13.82,-15.48 13.57,-15.9 3.35,-4.04 -25.06,-45.58 -5.2,0.67 -20.7,2.93 -20.47,3.38 -20.22,3.84 -10.02,2.09 -4.99,1.09 -27.32,-46.19 3.36,-3.84 6.67,-7.77 13.1,-15.88 12.82,-16.31 12.55,-16.72 3.09,-4.24 -27.87,-43.92 -5.16,0.99 -20.47,4.23 -20.21,4.66 -19.95,5.1 -9.87,2.72 -4.91,1.4 -30.16,-44.38 3.11,-4.05 6.16,-8.17 12.09,-16.67 11.77,-17.09 11.47,-17.47 2.82,-4.43 -30.58,-42.08 -5.08,1.31 -20.16,5.51 -19.89,5.92 -19.59,6.34 -9.68,3.33 -4.8,1.71 -32.89,-42.4 2.85,-4.23 5.63,-8.55 11.02,-17.4 10.67,-17.78 10.35,-18.16 2.54,-4.6 -33.16,-40.08 -4.99,1.63 -19.78,6.76 -19.47,7.16 -19.15,7.55 -9.45,3.94 -4.7,2.01 -35.48,-40.26 2.58,-4.4 5.09,-8.88 9.89,-18.06 9.54,-18.42 9.19,-18.77 2.24,-4.75 -35.61,-37.92 -4.88,1.94 -19.31,7.99 -18.98,8.36 -18.64,8.75 -9.19,4.52 -4.55,2.3 -37.95,-37.95 2.3,-4.55 4.52,-9.19 8.74,-18.64 8.37,-18.98 7.99,-19.32 1.94,-4.87 -37.92,-35.61 -4.75,2.24 -18.77,9.19 -18.42,9.54 -18.06,9.89 -8.88,5.09 -4.4,2.58 -40.26,-35.49 2.01,-4.69 3.94,-9.45 7.55,-19.15 7.16,-19.47 6.76,-19.78 1.63,-4.99 -40.08,-33.16 -4.6,2.54 -18.16,10.35 -17.78,10.67 -17.4,11.02 -8.55,5.63 -4.23,2.85 -42.4,-32.89 1.71,-4.81 3.33,-9.67 6.34,-19.59 5.92,-19.89 5.51,-20.16 1.31,-5.08 -42.08,-30.58 -4.43,2.82 -17.48,11.47 -17.08,11.77 -16.67,12.09 -8.17,6.16 -4.05,3.11 -44.38,-30.16 1.4,-4.91 2.72,-9.87 5.1,-19.95 4.66,-20.21 4.23,-20.47 0.99,-5.16 -43.92,-27.87 -4.24,3.09 -16.72,12.55 -16.31,12.82 -15.88,13.1 -7.77,6.66 -3.84,3.36 -46.2,-27.31 1.1,-4.99 2.09,-10.02 3.84,-20.23 3.37,-20.46 2.94,-20.7 0.67,-5.21 -45.59,-25.06 -4.03,3.36 -15.9,13.57 -15.48,13.81 -15.02,14.08 -7.34,7.14 -3.62,3.59 -47.82,-24.36 0.78,-5.04 1.46,-10.13 2.56,-20.43 2.09,-20.64 1.63,-20.84 0.34,-5.24 -47.07,-22.15 -3.82,3.6 -15.02,14.54 -14.57,14.76 -14.11,15 -6.88,7.58 -3.39,3.82 -49.25,-21.32 0.46,-5.08 0.82,-10.2 1.27,-20.55 0.79,-20.73 0.32,-20.9 0.01,-5.25 -48.37,-19.15 -3.58,3.83 -14.08,15.46 -13.62,15.65 -13.14,15.84 -6.38,8.01 -3.15,4.02 -50.49,-18.18 0.14,-5.1 0.18,-10.24 -0.02,-20.59 -0.52,-20.74 -0.99,-20.87 -0.32,-5.24 -49.48,-16.08 -3.33,4.05 -13.08,16.31 -12.61,16.47 -12.12,16.65 -5.87,8.38 -2.89,4.21 -51.53,-14.97 -0.18,-5.1 -0.46,-10.23 -1.32,-20.54 -1.82,-20.67 -2.3,-20.77 -0.65,-5.21 -50.38,-12.94 -3.08,4.25 -12.03,17.1 -11.55,17.23 -11.05,17.37 -5.33,8.74 -2.61,4.38 -52.38,-11.7 -0.5,-5.08 -1.1,-10.18 -2.6,-20.42 -3.12,-20.51 -3.6,-20.59 -0.97,-5.16 -51.1,-9.75 -2.81,4.44 -10.92,17.82 -10.45,17.92 -9.94,18.03 -4.77,9.06 -2.34,4.54 -53,-8.4 -0.82,-5.04 -1.74,-10.08 -3.88,-20.22 -4.39,-20.28 -4.89,-20.32 -1.3,-5.09 -51.61,-6.52 -2.52,4.61 -9.79,18.47 -9.29,18.54 -8.79,18.62 -4.2,9.34 -2.04,4.67 -53.43,-5.05 -1.13,-4.97 -2.37,-9.96 -5.14,-19.94 -5.66,-19.96 -6.16,-19.97 -1.61,-5 -51.92,-3.26 -2.22,4.75 -8.61,19.05 -8.12,19.09 -7.6,19.13 -3.6,9.59 -1.75,4.79 -53.64,-1.68 -1.44,-4.9 -2.99,-9.79 -6.38,-19.57 -6.91,-19.57 -7.39,-19.55 -1.93,-4.88 -52.01,0 -1.93,4.88 -7.39,19.55 -6.91,19.57 -6.38,19.57 -2.99,9.79 -1.45,4.9 -53.63,1.68 -1.75,-4.79 -3.6,-9.59 -7.6,-19.13 -8.12,-19.09 -8.61,-19.05 -2.22,-4.75 -51.92,3.26 -1.61,5 -6.16,19.97 -5.66,19.96 -5.14,19.94 -2.37,9.96 -1.13,4.97 -53.43,5.05 -2.04,-4.67 -4.2,-9.34 -8.79,-18.62 -9.3,-18.54 -9.78,-18.47 -2.52,-4.61 -51.61,6.52 -1.3,5.09 -4.89,20.32 -4.39,20.28 -3.88,20.22 -1.74,10.08 -0.82,5.04 -53,8.4 -2.34,-4.54 -4.77,-9.06 -9.94,-18.03 -10.45,-17.92 -10.92,-17.82 -2.81,-4.44 -51.1,9.75 -0.97,5.16 -3.6,20.59 -3.12,20.51 -2.6,20.42 -1.1,10.18 -0.51,5.08 -52.37,11.7 -2.61,-4.38 -5.33,-8.74 -11.06,-17.37 -11.55,-17.23 -12.02,-17.1 -3.08,-4.25 -50.38,12.94 -0.65,5.21 -2.3,20.77 -1.82,20.67 -1.32,20.54 -0.46,10.23 -0.18,5.1 -51.54,14.97 -2.88,-4.21 -5.87,-8.38 -12.12,-16.65 -12.61,-16.47 -13.08,-16.31 -3.34,-4.05 -49.47,16.08 -0.32,5.24 -0.99,20.87 -0.52,20.74 -0.02,20.59 0.18,10.24 0.14,5.1 -50.49,18.18 -3.15,-4.02 -6.38,-8.01 -13.14,-15.84 -13.62,-15.65 -14.08,-15.46 -3.58,-3.83 -48.37,19.15 0.01,5.25 0.32,20.9 0.79,20.73 1.26,20.55 0.83,10.2 0.46,5.08 -49.25,21.32 -3.39,-3.82 -6.88,-7.58 -14.11,-15 -14.57,-14.76 -15.02,-14.54 -3.82,-3.6 -47.07,22.15 0.34,5.24 1.63,20.84 2.09,20.64 2.55,20.43 1.47,10.13 0.78,5.04 -47.82,24.36 -3.62,-3.59 -7.34,-7.14 -15.02,-14.08 -15.48,-13.81 -15.9,-13.57 -4.04,-3.36 -45.58,25.06 0.67,5.21 2.93,20.7 3.38,20.46 3.84,20.23 2.09,10.02 1.09,4.99 -46.19003,27.31 -3.84,-3.36 -7.77,-6.66 -15.88,-13.1 -16.31,-12.82 -16.72,-12.55 -4.24,-3.09 -43.92,27.87 0.99,5.16 4.23,20.47 4.66,20.21 5.1,19.95 2.72,9.87 1.4,4.91 -44.38,30.16 -4.05,-3.11 -8.17,-6.16 -16.67,-12.09 -17.09,-11.77 -17.47,-11.47 -4.43,-2.82 -42.08,30.58 1.31,5.08 5.51,20.16 5.92,19.89 6.34,19.59 3.33,9.67 1.71,4.81 -42.4,32.89 -4.23,-2.85 -8.55,-5.63 -17.4,-11.02 -17.78,-10.67 -18.16,-10.35 -4.6,-2.54 -40.08,33.16 1.63,4.99 6.76,19.78 7.16,19.47 7.55,19.15 3.94,9.45 2.01,4.69 -40.26,35.49 -4.4,-2.58 -8.88,-5.09 -18.06,-9.89 -18.42,-9.54 -18.77,-9.19 -4.75,-2.24 -37.92,35.61 1.94,4.87 7.99,19.32 8.36,18.98 8.75,18.64 4.52,9.19 2.3,4.55 -37.95,37.95 -4.55,-2.3 -9.19,-4.52 -18.64,-8.75 -18.98,-8.36 -19.32,-7.99 -4.87,-1.94 -35.61,37.92 2.24,4.75 9.19,18.77 9.54,18.42 9.89,18.06 5.09,8.88 2.58,4.4 -35.49,40.26 -4.69,-2.01 -9.45,-3.94 -19.15,-7.55 -19.47,-7.16 -19.78,-6.76 -4.99,-1.63 -33.16,40.08 2.54,4.6 10.35,18.16 10.67,17.78 11.02,17.4 5.63,8.55 2.85,4.23 -32.89,42.4 -4.81,-1.71 -9.67,-3.33 -19.59,-6.34 -19.89,-5.92 -20.16,-5.51 -5.08,-1.31 -30.58,42.08 2.82,4.43 11.47,17.47 11.77,17.09 12.09,16.67 6.16,8.17 3.11,4.05 -30.16,44.38 -4.91,-1.4 -9.87,-2.72 -19.95,-5.1 -20.21,-4.66 -20.47,-4.23 -5.16,-0.99 -27.870003,43.92 3.09,4.24 12.55,16.72 12.820003,16.31 13.1,15.88 6.66,7.77 3.36,3.84 -27.31,46.19 -4.99,-1.09 -10.020003,-2.09 -20.23,-3.84 -20.46,-3.38 -20.7,-2.93 -5.21,-0.67 -25.0599997,45.58 3.36,4.04 13.5699997,15.9 13.81,15.48 14.08,15.02 7.14,7.34 3.59,3.62 -24.36,47.82 -5.04,-0.78 -10.13,-1.47 -20.4299997,-2.55 -20.6400003,-2.09 -20.84,-1.63 -5.24,-0.34 -22.15,47.07 3.6,3.82 14.54,15.02 14.76,14.57 15,14.11 7.58,6.88 3.82,3.39 -21.32,49.25 -5.08,-0.46 -10.2,-0.83 -20.55,-1.26 -20.73,-0.79 -20.899997,-0.32 -5.25,-0.01 -19.15,48.37 3.83,3.58 15.46,14.08 15.65,13.62 15.839997,13.14 8.01,6.38 4.02,3.15 -18.18,50.49 -5.1,-0.14 -10.239997,-0.18 -20.59,0.02 -20.74,0.52 -20.87,0.99 -5.24,0.32 -16.08,49.47 4.05,3.34 16.31,13.08 16.47,12.61 16.65,12.12 8.38,5.87 4.21,2.88 -14.97,51.54 -5.1,0.18 -10.23,0.46 -20.54,1.32 -20.67,1.82 -20.77,2.3 -5.21,0.65 -12.94,50.38 4.25,3.08 17.1,12.02 17.23,11.55 17.37,11.06 8.74,5.33 4.38,2.61 -11.7,52.37 -5.08,0.51 -10.18,1.1 -20.42,2.6 -20.51,3.12 -20.59,3.6 -5.16,0.97 -9.75,51.1 4.44,2.81 17.82,10.92 17.92,10.45 18.03,9.94 9.06,4.77 4.54,2.34 -8.4,53 -5.04,0.82 -10.08,1.74 -20.22,3.88 -20.28,4.39 -20.32,4.89 -5.09,1.3 -6.52,51.61 4.61,2.52 18.47,9.78 18.54,9.3 18.62,8.79 9.34,4.2 4.67,2.04 -5.05,53.43 -4.97,1.13 -9.96,2.37 -19.94,5.14 -19.96,5.66 -19.97,6.16 -5,1.61 -3.26,51.92 4.75,2.22 19.05,8.61 19.09,8.12 19.13,7.6 9.59,3.6 4.79,1.75 -1.68,53.63 -4.9,1.45 -9.79,2.99 -19.57,6.38 -19.57,6.91 -19.55,7.39 -4.88,1.93 0,52.01 4.88,1.93 19.55,7.39 19.57,6.91 19.57,6.38 9.79,2.99 4.9,1.44 1.68,53.64 -4.79,1.75 -9.59,3.6 -19.13,7.6 -19.09,8.12 -19.05,8.61 -4.75,2.22 3.26,51.92 5,1.61 19.97,6.16 19.96,5.66 19.94,5.14 9.96,2.37 4.97,1.13 5.05,53.43 -4.67,2.04 -9.34,4.2 -18.62,8.79 -18.54,9.29 -18.47,9.79 -4.61,2.52 6.52,51.61 5.09,1.3 20.32,4.89 20.28,4.39 20.22,3.88 10.08,1.74 5.04,0.82 8.4,53 -4.54,2.34 -9.06,4.77 -18.03,9.94 -17.92,10.45 -17.82,10.92 -4.44,2.81 9.75,51.1 5.16,0.97 20.59,3.6 20.51,3.12 20.42,2.6 10.18,1.1 5.08,0.5 11.7,52.38 -4.38,2.61 -8.74,5.33 -17.37,11.05 -17.23,11.55 -17.1,12.03 -4.25,3.08 12.94,50.38 5.21,0.65 20.77,2.3 20.67,1.82 20.54,1.32 10.23,0.46 5.1,0.18 14.97,51.53 -4.21,2.89 -8.38,5.87 -16.65,12.12 -16.47,12.61 -16.31,13.08 -4.05,3.33 16.08,49.48 5.24,0.32 20.87,0.99 20.74,0.52 20.59,0.02 10.239997,-0.18 5.1,-0.14 18.18,50.49 -4.02,3.15 -8.01,6.38 -15.839997,13.14 -15.65,13.62 -15.46,14.08 -3.83,3.58 19.15,48.37 5.25,-0.01 20.899997,-0.32 20.73,-0.79 20.55,-1.27 10.2,-0.82 5.08,-0.46 21.32,49.25 -3.82,3.39 -7.58,6.88 -15,14.11 -14.76,14.57 -14.54,15.02 -3.6,3.82 22.15,47.07 5.24,-0.34 20.84,-1.63 20.6400003,-2.09 20.4299997,-2.56 10.13,-1.46 5.04,-0.78 24.36,47.82 -3.59,3.62 -7.14,7.34 -14.08,15.02 -13.81,15.48 -13.5699997,15.9 -3.36,4.03 25.0599997,45.59 5.21,-0.67 20.7,-2.94 20.46,-3.37 20.23,-3.84 10.020003,-2.09 4.99,-1.1 27.31,46.2 -3.36,3.84 -6.66,7.77 -13.1,15.88 -12.820003,16.31 -12.55,16.72 -3.09,4.24 27.870003,43.92 5.16,-0.99 20.47,-4.23 20.21,-4.66 19.95,-5.1 9.87,-2.72 4.91,-1.4 30.16,44.38 -3.11,4.05 -6.16,8.17 -12.09,16.67 -11.77,17.08 -11.47,17.48 -2.82,4.43 30.58,42.08 5.08,-1.31 20.16,-5.51 19.89,-5.92 19.59,-6.34 9.67,-3.33 4.81,-1.71 32.89,42.4 -2.85,4.23 -5.63,8.55 -11.02,17.4 -10.67,17.78 -10.35,18.16 -2.54,4.6 33.16,40.08 4.99,-1.63 19.78,-6.76 19.47,-7.16 19.15,-7.55 9.45,-3.94 4.69,-2.01 35.49,40.26 -2.58,4.4 -5.09,8.88 -9.89,18.06 -9.54,18.42 -9.19,18.77 -2.24,4.75 35.61,37.92 4.87,-1.94 19.32,-7.99 18.98,-8.37 18.64,-8.74 9.19,-4.52 4.55,-2.3 37.95,37.95 -2.3,4.55 -4.52,9.19 -8.75,18.64 -8.36,18.98 -7.99,19.31 -1.94,4.88 37.92,35.61 4.75,-2.24 18.77,-9.19 18.42,-9.54 18.06,-9.89 8.88,-5.09 4.4,-2.58 40.26,35.48 -2.01,4.7 -3.94,9.45 -7.55,19.15 -7.16,19.47 -6.76,19.78 -1.63,4.99 40.08,33.16 4.6,-2.54 18.16,-10.35 17.78,-10.67 17.4,-11.02 8.55,-5.63 4.23,-2.85 42.4,32.89 -1.71,4.8 -3.33,9.68 -6.34,19.59 -5.92,19.89 -5.51,20.16 -1.31,5.08 42.08,30.58 4.43,-2.82 17.47,-11.47 17.09,-11.77 16.67,-12.09 8.17,-6.16 4.05,-3.11 44.38,30.16 -1.4,4.91 -2.72,9.87 -5.1,19.95 -4.66,20.21 -4.23,20.47 -0.99,5.16 43.92,27.87 4.24,-3.09 16.72,-12.55 16.31,-12.82 15.88,-13.1 7.77,-6.67 3.84,-3.36 46.19003,27.32 -1.09,4.99 -2.09,10.02 -3.84,20.22 -3.38,20.47 -2.93,20.7 -0.67,5.2 45.58,25.06 4.04,-3.35 15.9,-13.57 15.48,-13.82 15.02,-14.07 7.34,-7.14 3.62,-3.59 47.82,24.36 -0.78,5.04 -1.47,10.13 -2.55,20.43 -2.09,20.64 -1.63,20.84 -0.34,5.24 47.07,22.15 3.82,-3.6 15.02,-14.54 14.57,-14.77 14.11,-14.99 6.88,-7.58 3.39,-3.82 49.25,21.32 -0.46,5.08 -0.83,10.2 -1.26,20.55 -0.79,20.73 -0.32,20.9 -0.01,5.25 48.37,19.15 3.58,-3.83 14.08,-15.46 13.62,-15.65 13.14,-15.85 6.38,-8 3.15,-4.02 50.49,18.18 -0.14,5.1 -0.18,10.24 0.02,20.59 0.52,20.74 0.99,20.87 0.32,5.24 49.47,16.08 3.34,-4.05 13.08,-16.31 12.61,-16.47 12.12,-16.65 5.87,-8.38 2.88,-4.21 51.54,14.97 0.18,5.1 0.46,10.23 1.32,20.54 1.82,20.67 2.3,20.77 0.65,5.21 50.38,12.94 3.08,-4.25 12.02,-17.1 11.55,-17.23 11.06,-17.37 5.33,-8.74 2.61,-4.38 52.37,11.7 0.51,5.08 1.1,10.18 2.6,20.42 3.12,20.51 3.6,20.59 0.97,5.16 51.1,9.75 2.81,-4.44 10.92,-17.82 10.45,-17.92 9.94,-18.03 4.77,-9.06 2.34,-4.54 53,8.4 0.82,5.04 1.74,10.08 3.88,20.22 4.39,20.28 4.89,20.32 1.3,5.09 51.61,6.52 2.52,-4.61 9.78,-18.47 9.3,-18.54 8.79,-18.62 4.2,-9.34 2.04,-4.67 53.43,5.05 1.13,4.97 2.37,9.96 5.14,19.94 5.66,19.96 6.16,19.97 1.61,5 51.92,3.26 2.22,-4.75 8.61,-19.05 8.12,-19.09 7.6,-19.13 3.6,-9.59 1.75,-4.79 53.63,1.68 1.45,4.9 2.99,9.79 6.38,19.57 6.91,19.57 7.39,19.55 1.93,4.88 52.01,0 1.93,-4.88 7.39,-19.55 6.91,-19.57 6.38,-19.57 2.99,-9.79 1.44,-4.9 53.64,-1.68 1.75,4.79 3.6,9.59 7.6,19.13 8.12,19.09 8.61,19.05 2.22,4.75 51.92,-3.26 1.61,-5 6.16,-19.97 5.66,-19.96 5.14,-19.94 2.37,-9.96 1.13,-4.97 53.43,-5.05 2.04,4.67 4.2,9.34 8.79,18.62 9.29,18.54 9.79,18.47 2.52,4.61 51.61,-6.52 1.3,-5.09 4.89,-20.32 4.39,-20.28 3.88,-20.22 1.74,-10.08 0.82,-5.04 53,-8.4 2.34,4.54 4.77,9.06 9.94,18.03 10.45,17.92 10.92,17.82 2.81,4.44 51.1,-9.75 0.97,-5.16 3.6,-20.59 3.12,-20.51 2.6,-20.42 1.1,-10.18 0.5,-5.08 52.38,-11.7 2.61,4.38 5.33,8.74 11.05,17.37 11.55,17.23 12.03,17.1 3.08,4.25 50.38,-12.94 0.65,-5.21 2.3,-20.77 1.82,-20.67 1.32,-20.54 0.46,-10.23 0.18,-5.1 51.53,-14.97 2.89,4.21 5.87,8.38 12.12,16.65 12.61,16.47 13.08,16.31 3.33,4.05 49.48,-16.08 0.32,-5.24 0.99,-20.87 0.52,-20.74 0.02,-20.59 -0.18,-10.24 -0.14,-5.1 50.49,-18.18 3.15,4.02 6.38,8 13.14,15.85 13.62,15.65 14.08,15.46 3.58,3.83 48.37,-19.15 -0.01,-5.25 -0.32,-20.9 -0.79,-20.73 -1.27,-20.55 -0.82,-10.2 -0.46,-5.08 49.25,-21.32 3.39,3.82 6.88,7.58 14.11,14.99 14.57,14.77 15.02,14.54 3.82,3.6 47.07,-22.15 -0.34,-5.24 -1.63,-20.84 -2.09,-20.64 -2.56,-20.43 -1.46,-10.13 -0.78,-5.04 47.82,-24.36 3.62,3.59 7.34,7.14 15.02,14.07 15.48,13.82 15.9,13.57 4.03,3.35 45.59,-25.06 -0.67,-5.2 -2.94,-20.7 -3.37,-20.47 -3.84,-20.22 -2.09,-10.02 -1.1,-4.99 46.2,-27.32 3.84,3.36 7.77,6.67 15.88,13.1 16.31,12.82 16.72,12.55 4.24,3.09 43.92,-27.87 -0.99,-5.16 -4.23,-20.47 -4.66,-20.21 -5.1,-19.95 -2.72,-9.87 -1.4,-4.91 44.38,-30.16 4.05,3.11 8.17,6.16 16.67,12.09 17.08,11.77 17.48,11.47 4.43,2.82 42.08,-30.58 -1.31,-5.08 -5.51,-20.16 -5.92,-19.89 -6.34,-19.59 -3.33,-9.68 -1.71,-4.8 42.4,-32.89 4.23,2.85 8.55,5.63 17.4,11.02 17.78,10.67 18.16,10.35 4.6,2.54 40.08,-33.16 -1.63,-4.99 -6.76,-19.78 -7.16,-19.47 -7.55,-19.15 -3.94,-9.45 -2.01,-4.7 40.26,-35.48 4.4,2.58 8.88,5.09 18.06,9.89 18.42,9.54 18.77,9.19 4.75,2.24 37.92,-35.61 -1.94,-4.88 -7.99,-19.31 -8.37,-18.98 -8.74,-18.64 -4.52,-9.19 -2.3,-4.55 37.95,-37.95 4.55,2.3 9.19,4.52 18.64,8.74 18.98,8.37 19.31,7.99 4.88,1.94 35.61,-37.92 -2.24,-4.75 -9.19,-18.77 -9.54,-18.42 -9.89,-18.06 -5.09,-8.88 -2.58,-4.4 35.48,-40.26 4.7,2.01 9.45,3.94 19.15,7.55 19.47,7.16 19.78,6.76 4.99,1.63 33.16,-40.08 -2.54,-4.6 -10.35,-18.16 -10.67,-17.78 -11.02,-17.4 -5.63,-8.55 -2.85,-4.23 32.89,-42.4 4.8,1.71 9.68,3.33 19.59,6.34 19.89,5.92 20.16,5.51 5.08,1.31 30.58,-42.08 -2.82,-4.43 -11.47,-17.48 -11.77,-17.08 -12.09,-16.67 -6.16,-8.17 -3.11,-4.05 30.16,-44.38 4.91,1.4 9.87,2.72 19.95,5.1 20.21,4.66 20.47,4.23 5.16,0.99 27.87,-43.92 -3.09,-4.24 -12.55,-16.72 -12.82,-16.31 -13.1,-15.88 -6.67,-7.77 -3.36,-3.84 27.32,-46.2 4.99,1.1 10.02,2.09 20.22,3.84 20.47,3.37 20.7,2.94 5.2,0.67 25.06,-45.59 -3.35,-4.03 -13.57,-15.9 -13.82,-15.48 -14.07,-15.02 -7.14,-7.34 -3.59,-3.62 24.36,-47.82 5.04,0.78 10.13,1.46 20.43,2.56 20.64,2.09 20.84,1.63 5.24,0.34 22.15,-47.07 -3.6,-3.82 -14.54,-15.02 -14.77,-14.57 -14.99,-14.11 -7.58,-6.88 -3.82,-3.39 21.32,-49.25 5.08,0.46 10.2,0.82 20.55,1.27 20.73,0.79 20.9,0.32 5.25,0.01 19.15,-48.37 -3.83,-3.58 -15.46,-14.08 -15.65,-13.62 -15.85,-13.14 -8,-6.38 -4.02,-3.15 18.18,-50.49 5.1,0.14 10.24,0.18 20.59,-0.02 20.74,-0.52 20.87,-0.99 5.24,-0.32 16.08,-49.48 -4.05,-3.33 -16.31,-13.08 -16.47,-12.61 -16.65,-12.12 -8.38,-5.87 -4.21,-2.89 14.97,-51.53 5.1,-0.18 10.23,-0.46 20.54,-1.32 20.67,-1.82 20.77,-2.3 5.21,-0.65 12.94,-50.38 -4.25,-3.08 -17.1,-12.03 -17.23,-11.55 -17.37,-11.05 -8.74,-5.33 -4.38,-2.61 11.7,-52.38 5.08,-0.5 10.18,-1.1 20.42,-2.6 20.51,-3.12 20.59,-3.6 5.16,-0.97 9.75,-51.1 -4.44,-2.81 -17.82,-10.92 -17.92,-10.45 -18.03,-9.94 -9.06,-4.77 -4.54,-2.34 8.4,-53 5.04,-0.82 10.08,-1.74 20.22,-3.88 20.28,-4.39 20.32,-4.89 5.09,-1.3 6.52,-51.61 -4.61,-2.52 -18.47,-9.79 -18.54,-9.29 -18.62,-8.79 -9.34,-4.2 -4.67,-2.04 5.05,-53.43 4.97,-1.13 9.96,-2.37 19.94,-5.14 19.96,-5.66 19.97,-6.16 5,-1.61 3.26,-51.92 -4.75,-2.22 -19.05,-8.61 -19.09,-8.12 -19.13,-7.6 -9.59,-3.6 -4.79,-1.75 1.68,-53.64 4.9,-1.44 9.79,-2.99 19.57,-6.38 19.57,-6.91 19.55,-7.39 z"
       id="G1Gear"
       inkscape:connector-curvature="0" />
    <path
       style="display:inline;fill:none;stroke:#000000;stroke-width:0.42098698;stroke-opacity:1"
       d="m 295.525,777.88656 a 21.049349,21.049349 0 0 1 -21.04935,21.04935 21.049349,21.049349 0 0 1 -21.04935,-21.04935 21.049349,21.049349 0 0 1 21.04935,-21.04935 21.049349,21.049349 0 0 1 21.04935,21.04935 z"
       id="G1_sh"
       inkscape:connector-curvature="0" />
    <g
       style="display:inline"
       id="g6920"
       transform="translate(6.8609346,-1.2374318)">
      <path
         style="fill:none;fill-opacity:1;stroke:#000000;stroke-width:0.38585413;stroke-miterlimit:4;stroke-dasharray:none;stroke-opacity:1"
         d="m 379.50368,779.12399 a 5.5897491,5.5897496 0 0 1 -5.58976,5.58975 5.5897491,5.5897496 0 0 1 -5.58975,-5.58975 5.5897491,5.5897496 0 0 1 5.58975,-5.58975 5.5897491,5.5897496 0 0 1 5.58976,5.58975 z"
         id="path6914"
         inkscape:connector-curvature="0" />
      <path
         inkscape:connector-curvature="0"
         id="path6916"
         d="m 166.90526,779.12399 a 5.5897491,5.5897496 0 0 1 -5.58976,5.58975 5.5897491,5.5897496 0 0 1 -5.58975,-5.58975 5.5897491,5.5897496 0 0 1 5.58975,-5.58975 5.5897491,5.5897496 0 0 1 5.58976,5.58975 z"
         style="fill:none;fill-opacity:1;stroke:#000000;stroke-width:0.38585413;stroke-miterlimit:4;stroke-dasharray:none;stroke-opacity:1" />
    </g>
    <g
       style="display:inline"
       id="g6924"
       transform="translate(1.2380446,-20.661472)">
      <g
         id="g6934">
        <path
           style="fill:none;fill-opacity:1;stroke:#000000;stroke-width:0.38585413;stroke-miterlimit:4;stroke-dasharray:none;stroke-opacity:1"
           d="m 278.82795,692.24882 a 5.5897491,5.5897496 0 0 1 -5.58976,5.58975 5.5897491,5.5897496 0 0 1 -5.58975,-5.58975 5.5897491,5.5897496 0 0 1 5.58975,-5.58975 5.5897491,5.5897496 0 0 1 5.58976,5.58975 z"
           id="path6911"
           inkscape:connector-curvature="0" />
        <path
           inkscape:connector-curvature="0"
           id="path6918"
           d="m 278.82677,904.84724 a 5.5897491,5.5897496 0 0 1 -5.58976,5.58975 5.5897491,5.5897496 0 0 1 -5.58975,-5.58975 5.5897491,5.5897496 0 0 1 5.58975,-5.58975 5.5897491,5.5897496 0 0 1 5.58976,5.58975 z"
           style="fill:none;fill-opacity:1;stroke:#000000;stroke-width:0.38585413;stroke-miterlimit:4;stroke-dasharray:none;stroke-opacity:1" />
      </g>
    </g>
  </g>
</svg>
