<?xml version="1.0" encoding="UTF-8" standalone="no"?>
<!-- Created with Inkscape (http://www.inkscape.org/) -->

<svg
   xmlns:dc="http://purl.org/dc/elements/1.1/"
   xmlns:cc="http://creativecommons.org/ns#"
   xmlns:rdf="http://www.w3.org/1999/02/22-rdf-syntax-ns#"
   xmlns:svg="http://www.w3.org/2000/svg"
   xmlns="http://www.w3.org/2000/svg"
   xmlns:sodipodi="http://sodipodi.sourceforge.net/DTD/sodipodi-0.dtd"
   xmlns:inkscape="http://www.inkscape.org/namespaces/inkscape"
   width="240mm"
   height="160mm"
   viewBox="0 0 850.3937 566.92913"
   id="svg2"
   version="1.1"
   inkscape:version="0.91 r13725"
   sodipodi:docname="Gear Guide.svg">
  <defs
     id="defs4" />
  <sodipodi:namedview
     id="base"
     pagecolor="#ffffff"
     bordercolor="#666666"
     borderopacity="1.0"
     inkscape:pageopacity="0.0"
     inkscape:pageshadow="2"
     inkscape:zoom="1.9428346"
     inkscape:cx="672.99241"
     inkscape:cy="292.83678"
     inkscape:document-units="px"
     inkscape:current-layer="g6881"
     showgrid="false"
     inkscape:window-width="1280"
     inkscape:window-height="751"
     inkscape:window-x="1"
     inkscape:window-y="1"
     inkscape:window-maximized="0" />
  <metadata
     id="metadata7">
    <rdf:RDF>
      <cc:Work
         rdf:about="">
        <dc:format>image/svg+xml</dc:format>
        <dc:type
           rdf:resource="http://purl.org/dc/dcmitype/StillImage" />
        <dc:title />
      </cc:Work>
    </rdf:RDF>
  </metadata>
  <g
     transform="translate(0,-485.43307)"
     style="display:inline"
     inkscape:label="gear guide"
     id="g6881"
     inkscape:groupmode="layer"
     sodipodi:insensitive="true">
    <rect
       y="703.22552"
       x="525.43787"
       height="149.32201"
       width="242.52786"
       id="rect6883"
       style="fill:none;fill-opacity:1;stroke:#000000;stroke-width:0.55988729;stroke-miterlimit:4;stroke-dasharray:none;stroke-opacity:1" />
    <g
       transform="translate(0,1.8107985)"
       id="g6899">
      <path
         style="fill:none;fill-opacity:1;stroke:#000000;stroke-width:0.39581478;stroke-miterlimit:4;stroke-dasharray:none;stroke-opacity:1"
         d="m 709.57606,727.72705 a 6.3572106,6.3572106 0 0 1 -6.35721,6.35721 6.3572106,6.3572106 0 0 1 -6.35721,-6.35721 6.3572106,6.3572106 0 0 1 6.35721,-6.35721 6.3572106,6.3572106 0 0 1 6.35721,6.35721 z"
         id="path6901"
         inkscape:connector-curvature="0" />
      <path
         id="path6903"
         d="m 754.37624,776.07577 a 6.3572106,6.3572106 0 0 1 -6.35721,6.35721 6.3572106,6.3572106 0 0 1 -6.35721,-6.35721 6.3572106,6.3572106 0 0 1 6.35721,-6.35721 6.3572106,6.3572106 0 0 1 6.35721,6.35721 z"
         style="fill:none;fill-opacity:1;stroke:#000000;stroke-width:0.39581478;stroke-miterlimit:4;stroke-dasharray:none;stroke-opacity:1"
         inkscape:connector-curvature="0" />
      <path
         style="fill:none;fill-opacity:1;stroke:#000000;stroke-width:0.39581478;stroke-miterlimit:4;stroke-dasharray:none;stroke-opacity:1"
         d="m 709.57606,824.42447 a 6.3572106,6.3572106 0 0 1 -6.35721,6.35721 6.3572106,6.3572106 0 0 1 -6.35721,-6.35721 6.3572106,6.3572106 0 0 1 6.35721,-6.35721 6.3572106,6.3572106 0 0 1 6.35721,6.35721 z"
         id="path6905"
         inkscape:connector-curvature="0" />
    </g>
    <path
       style="display:inline;fill:none;fill-opacity:1;stroke:#000000;stroke-width:0.76421732;stroke-miterlimit:4;stroke-dasharray:none;stroke-opacity:1"
       d="m 594.97143,777.887 a 9.361986,9.3619834 0 0 1 -9.36198,9.36199 9.361986,9.3619834 0 0 1 -9.36199,-9.36199 9.361986,9.3619834 0 0 1 9.36199,-9.36198 9.361986,9.3619834 0 0 1 9.36198,9.36198 z"
       id="path6907"
       inkscape:connector-curvature="0" />
  </g>
</svg>
