<?xml version="1.0" encoding="UTF-8" standalone="no"?>
<!-- Created with Inkscape (http://www.inkscape.org/) -->

<svg
   xmlns:dc="http://purl.org/dc/elements/1.1/"
   xmlns:cc="http://creativecommons.org/ns#"
   xmlns:rdf="http://www.w3.org/1999/02/22-rdf-syntax-ns#"
   xmlns:svg="http://www.w3.org/2000/svg"
   xmlns="http://www.w3.org/2000/svg"
   xmlns:sodipodi="http://sodipodi.sourceforge.net/DTD/sodipodi-0.dtd"
   xmlns:inkscape="http://www.inkscape.org/namespaces/inkscape"
   width="240mm"
   height="160mm"
   viewBox="0 0 850.3937 566.92913"
   id="svg2"
   version="1.1"
   inkscape:version="0.91 r13725"
   sodipodi:docname="Large Gear.svg">
  <defs
     id="defs4" />
  <sodipodi:namedview
     id="base"
     pagecolor="#ffffff"
     bordercolor="#666666"
     borderopacity="1.0"
     inkscape:pageopacity="0.0"
     inkscape:pageshadow="2"
     inkscape:zoom="1.9428346"
     inkscape:cx="487.69613"
     inkscape:cy="292.83678"
     inkscape:document-units="px"
     inkscape:current-layer="layer3"
     showgrid="false"
     inkscape:window-width="1280"
     inkscape:window-height="751"
     inkscape:window-x="1"
     inkscape:window-y="1"
     inkscape:window-maximized="0" />
  <metadata
     id="metadata7">
    <rdf:RDF>
      <cc:Work
         rdf:about="">
        <dc:format>image/svg+xml</dc:format>
        <dc:type
           rdf:resource="http://purl.org/dc/dcmitype/StillImage" />
        <dc:title />
      </cc:Work>
    </rdf:RDF>
  </metadata>
  <g
     inkscape:groupmode="layer"
     id="layer3"
     inkscape:label="large gear"
     style="display:inline"
     transform="translate(0,-485.43307)"
     sodipodi:insensitive="true">
    <path
       transform="matrix(0.10471953,0,0,0.10471953,32.656548,245.04786)"
       style="display:inline;fill:none;fill-opacity:0.2;stroke:#000000;stroke-miterlimit:10;stroke-opacity:1"
       d="m 4929.7623,5114.2507 0,-52.01 -4.88,-1.93 -19.55,-7.39 -19.57,-6.91 -19.57,-6.38 -9.79,-2.99 -4.9,-1.45 -1.68,-53.63 4.79,-1.75 9.59,-3.6 19.13,-7.6 19.09,-8.12 19.05,-8.61 4.75,-2.22 -3.26,-51.92 -5,-1.61 -19.97,-6.16 -19.96,-5.66 -19.94,-5.14 -9.96,-2.37 -4.97,-1.13 -5.05,-53.43 4.67,-2.04 9.34,-4.2 18.62,-8.79 18.54,-9.3 18.47,-9.78 4.61,-2.52 -6.52,-51.61 -5.09,-1.3 -20.32,-4.89 -20.28,-4.39 -20.22,-3.88 -10.08,-1.74 -5.04,-0.82 -8.4,-53 4.54,-2.34 9.06,-4.77 18.03,-9.94 17.92,-10.45 17.82,-10.92 4.44,-2.81 -9.75,-51.1 -5.16,-0.97 -20.59,-3.6 -20.51,-3.12 -20.42,-2.6 -10.18,-1.1 -5.08,-0.51 -11.7,-52.37 4.38,-2.61 8.74,-5.33 17.37,-11.06 17.23,-11.55 17.1,-12.02 4.25,-3.08 -12.94,-50.38 -5.21,-0.65 -20.77,-2.3 -20.67,-1.82 -20.54,-1.32 -10.23,-0.46 -5.1,-0.18 -14.97,-51.54 4.21,-2.88 8.38,-5.87 16.65,-12.12 16.47,-12.61 16.31,-13.08 4.05,-3.34 -16.08,-49.47 -5.24,-0.32 -20.87,-0.99 -20.74,-0.52 -20.59,-0.02 -10.24,0.18 -5.1,0.14 -18.18,-50.49 4.02,-3.15 8,-6.38 15.85,-13.14 15.65,-13.62 15.46,-14.08 3.83,-3.58 -19.15,-48.37 -5.25,0.01 -20.9,0.32 -20.73,0.79 -20.55,1.26 -10.2,0.83 -5.08,0.46 -21.32,-49.25 3.82,-3.39 7.58,-6.88 14.99,-14.11 14.77,-14.57 14.54,-15.02 3.6,-3.82 -22.15,-47.07 -5.24,0.34 -20.84,1.63 -20.64,2.09 -20.43,2.55 -10.13,1.47 -5.04,0.78 -24.36,-47.82 3.59,-3.62 7.14,-7.34 14.07,-15.02 13.82,-15.48 13.57,-15.9 3.35,-4.04 -25.06,-45.58 -5.2,0.67 -20.7,2.93 -20.47,3.38 -20.22,3.84 -10.02,2.09 -4.99,1.09 -27.32,-46.19 3.36,-3.84 6.67,-7.77 13.1,-15.88 12.82,-16.31 12.55,-16.72 3.09,-4.24 -27.87,-43.92 -5.16,0.99 -20.47,4.23 -20.21,4.66 -19.95,5.1 -9.87,2.72 -4.91,1.4 -30.16,-44.38 3.11,-4.05 6.16,-8.17 12.09,-16.67 11.77,-17.09 11.47,-17.47 2.82,-4.43 -30.58,-42.08 -5.08,1.31 -20.16,5.51 -19.89,5.92 -19.59,6.34 -9.68,3.33 -4.8,1.71 -32.89,-42.4 2.85,-4.23 5.63,-8.55 11.02,-17.4 10.67,-17.78 10.35,-18.16 2.54,-4.6 -33.16,-40.08 -4.99,1.63 -19.78,6.76 -19.47,7.16 -19.15,7.55 -9.45,3.94 -4.7,2.01 -35.48,-40.26 2.58,-4.4 5.09,-8.88 9.89,-18.06 9.54,-18.42 9.19,-18.77 2.24,-4.75 -35.61,-37.92 -4.88,1.94 -19.31,7.99 -18.98,8.36 -18.64,8.75 -9.19,4.52 -4.55,2.3 -37.95,-37.95 2.3,-4.55 4.52,-9.19 8.74,-18.64 8.37,-18.98 7.99,-19.32 1.94,-4.87 -37.92,-35.61 -4.75,2.24 -18.77,9.19 -18.42,9.54 -18.06,9.89 -8.88,5.09 -4.4,2.58 -40.26,-35.49 2.01,-4.69 3.94,-9.45 7.55,-19.15 7.16,-19.47 6.76,-19.78 1.63,-4.99 -40.08,-33.16 -4.6,2.54 -18.16,10.35 -17.78,10.67 -17.4,11.02 -8.55,5.63 -4.23,2.85 -42.4,-32.89 1.71,-4.81 3.33,-9.67 6.34,-19.59 5.92,-19.89 5.51,-20.16 1.31,-5.08 -42.08,-30.58 -4.43,2.82 -17.48,11.47 -17.08,11.77 -16.67,12.09 -8.17,6.16 -4.05,3.11 -44.38,-30.16 1.4,-4.91 2.72,-9.87 5.1,-19.95 4.66,-20.21 4.23,-20.47 0.99,-5.16 -43.92,-27.87 -4.24,3.09 -16.72,12.55 -16.31,12.82 -15.88,13.1 -7.77,6.66 -3.84,3.36 -46.2,-27.31 1.1,-4.99 2.09,-10.02 3.84,-20.23 3.37,-20.46 2.94,-20.7 0.67,-5.21 -45.59,-25.06 -4.03,3.36 -15.9,13.57 -15.48,13.81 -15.02,14.08 -7.34,7.14 -3.62,3.59 -47.82,-24.36 0.78,-5.04 1.46,-10.13 2.56,-20.43 2.09,-20.64 1.63,-20.84 0.34,-5.24 -47.07,-22.15 -3.82,3.6 -15.02,14.54 -14.57,14.76 -14.11,15 -6.88,7.58 -3.39,3.82 -49.25,-21.32 0.46,-5.08 0.82,-10.2 1.27,-20.55 0.79,-20.73 0.32,-20.9 0.01,-5.25 -48.37,-19.15 -3.58,3.83 -14.08,15.46 -13.62,15.65 -13.14,15.84 -6.38,8.01 -3.15,4.02 -50.49,-18.18 0.14,-5.1 0.18,-10.24 -0.02,-20.59 -0.52,-20.74 -0.99,-20.87 -0.32,-5.24 -49.48,-16.08 -3.33,4.05 -13.08,16.31 -12.61,16.47 -12.12,16.65 -5.87,8.38 -2.89,4.21 -51.53,-14.97 -0.18,-5.1 -0.46,-10.23 -1.32,-20.54 -1.82,-20.67 -2.3,-20.77 -0.65,-5.21 -50.38,-12.94 -3.08,4.25 -12.03,17.1 -11.55,17.23 -11.05,17.37 -5.33,8.74 -2.61,4.38 -52.38,-11.7 -0.5,-5.08 -1.1,-10.18 -2.6,-20.42 -3.12,-20.51 -3.6,-20.59 -0.97,-5.16 -51.1,-9.75 -2.81,4.44 -10.92,17.82 -10.45,17.92 -9.94,18.03 -4.77,9.06 -2.34,4.54 -53,-8.4 -0.82,-5.04 -1.74,-10.08 -3.88,-20.22 -4.39,-20.28 -4.89,-20.32 -1.3,-5.09 -51.61,-6.52 -2.52,4.61 -9.79,18.47 -9.29,18.54 -8.79,18.62 -4.2,9.34 -2.04,4.67 -53.43,-5.05 -1.13,-4.97 -2.37,-9.96 -5.14,-19.94 -5.66,-19.96 -6.16,-19.97 -1.61,-5 -51.92,-3.26 -2.22,4.75 -8.61,19.05 -8.12,19.09 -7.6,19.13 -3.6,9.59 -1.75,4.79 -53.64,-1.68 -1.44,-4.9 -2.99,-9.79 -6.38,-19.57 -6.91,-19.57 -7.39,-19.55 -1.93,-4.88 -52.01,0 -1.93,4.88 -7.39,19.55 -6.91,19.57 -6.38,19.57 -2.99,9.79 -1.45,4.9 -53.63,1.68 -1.75,-4.79 -3.6,-9.59 -7.6,-19.13 -8.12,-19.09 -8.61,-19.05 -2.22,-4.75 -51.92,3.26 -1.61,5 -6.16,19.97 -5.66,19.96 -5.14,19.94 -2.37,9.96 -1.13,4.97 -53.43,5.05 -2.04,-4.67 -4.2,-9.34 -8.79,-18.62 -9.3,-18.54 -9.78,-18.47 -2.52,-4.61 -51.61,6.52 -1.3,5.09 -4.89,20.32 -4.39,20.28 -3.88,20.22 -1.74,10.08 -0.82,5.04 -53,8.4 -2.34,-4.54 -4.77,-9.06 -9.94,-18.03 -10.45,-17.92 -10.92,-17.82 -2.81,-4.44 -51.1,9.75 -0.97,5.16 -3.6,20.59 -3.12,20.51 -2.6,20.42 -1.1,10.18 -0.51,5.08 -52.37,11.7 -2.61,-4.38 -5.33,-8.74 -11.06,-17.37 -11.55,-17.23 -12.02,-17.1 -3.08,-4.25 -50.38,12.94 -0.65,5.21 -2.3,20.77 -1.82,20.67 -1.32,20.54 -0.46,10.23 -0.18,5.1 -51.54,14.97 -2.88,-4.21 -5.87,-8.38 -12.12,-16.65 -12.61,-16.47 -13.08,-16.31 -3.34,-4.05 -49.47,16.08 -0.32,5.24 -0.99,20.87 -0.52,20.74 -0.02,20.59 0.18,10.24 0.14,5.1 -50.49,18.18 -3.15,-4.02 -6.38,-8.01 -13.14,-15.84 -13.62,-15.65 -14.08,-15.46 -3.58,-3.83 -48.37,19.15 0.01,5.25 0.32,20.9 0.79,20.73 1.26,20.55 0.83,10.2 0.46,5.08 -49.25,21.32 -3.39,-3.82 -6.88,-7.58 -14.11,-15 -14.57,-14.76 -15.02,-14.54 -3.82,-3.6 -47.07,22.15 0.34,5.24 1.63,20.84 2.09,20.64 2.55,20.43 1.47,10.13 0.78,5.04 -47.82,24.36 -3.62,-3.59 -7.34,-7.14 -15.02,-14.08 -15.48,-13.81 -15.9,-13.57 -4.04,-3.36 -45.58,25.06 0.67,5.21 2.93,20.7 3.38,20.46 3.84,20.23 2.09,10.02 1.09,4.99 -46.19003,27.31 -3.84,-3.36 -7.77,-6.66 -15.88,-13.1 -16.31,-12.82 -16.72,-12.55 -4.24,-3.09 -43.92,27.87 0.99,5.16 4.23,20.47 4.66,20.21 5.1,19.95 2.72,9.87 1.4,4.91 -44.38,30.16 -4.05,-3.11 -8.17,-6.16 -16.67,-12.09 -17.09,-11.77 -17.47,-11.47 -4.43,-2.82 -42.08,30.58 1.31,5.08 5.51,20.16 5.92,19.89 6.34,19.59 3.33,9.67 1.71,4.81 -42.4,32.89 -4.23,-2.85 -8.55,-5.63 -17.4,-11.02 -17.78,-10.67 -18.16,-10.35 -4.6,-2.54 -40.08,33.16 1.63,4.99 6.76,19.78 7.16,19.47 7.55,19.15 3.94,9.45 2.01,4.69 -40.26,35.49 -4.4,-2.58 -8.88,-5.09 -18.06,-9.89 -18.42,-9.54 -18.77,-9.19 -4.75,-2.24 -37.92,35.61 1.94,4.87 7.99,19.32 8.36,18.98 8.75,18.64 4.52,9.19 2.3,4.55 -37.95,37.95 -4.55,-2.3 -9.19,-4.52 -18.64,-8.75 -18.98,-8.36 -19.32,-7.99 -4.87,-1.94 -35.61,37.92 2.24,4.75 9.19,18.77 9.54,18.42 9.89,18.06 5.09,8.88 2.58,4.4 -35.49,40.26 -4.69,-2.01 -9.45,-3.94 -19.15,-7.55 -19.47,-7.16 -19.78,-6.76 -4.99,-1.63 -33.16,40.08 2.54,4.6 10.35,18.16 10.67,17.78 11.02,17.4 5.63,8.55 2.85,4.23 -32.89,42.4 -4.81,-1.71 -9.67,-3.33 -19.59,-6.34 -19.89,-5.92 -20.16,-5.51 -5.08,-1.31 -30.58,42.08 2.82,4.43 11.47,17.47 11.77,17.09 12.09,16.67 6.16,8.17 3.11,4.05 -30.16,44.38 -4.91,-1.4 -9.87,-2.72 -19.95,-5.1 -20.21,-4.66 -20.47,-4.23 -5.16,-0.99 -27.870003,43.92 3.09,4.24 12.55,16.72 12.820003,16.31 13.1,15.88 6.66,7.77 3.36,3.84 -27.31,46.19 -4.99,-1.09 -10.020003,-2.09 -20.23,-3.84 -20.46,-3.38 -20.7,-2.93 -5.21,-0.67 -25.0599997,45.58 3.36,4.04 13.5699997,15.9 13.81,15.48 14.08,15.02 7.14,7.34 3.59,3.62 -24.36,47.82 -5.04,-0.78 -10.13,-1.47 -20.4299997,-2.55 -20.6400003,-2.09 -20.84,-1.63 -5.24,-0.34 -22.15,47.07 3.6,3.82 14.54,15.02 14.76,14.57 15,14.11 7.58,6.88 3.82,3.39 -21.32,49.25 -5.08,-0.46 -10.2,-0.83 -20.55,-1.26 -20.73,-0.79 -20.899997,-0.32 -5.25,-0.01 -19.15,48.37 3.83,3.58 15.46,14.08 15.65,13.62 15.839997,13.14 8.01,6.38 4.02,3.15 -18.18,50.49 -5.1,-0.14 -10.239997,-0.18 -20.59,0.02 -20.74,0.52 -20.87,0.99 -5.24,0.32 -16.08,49.47 4.05,3.34 16.31,13.08 16.47,12.61 16.65,12.12 8.38,5.87 4.21,2.88 -14.97,51.54 -5.1,0.18 -10.23,0.46 -20.54,1.32 -20.67,1.82 -20.77,2.3 -5.21,0.65 -12.94,50.38 4.25,3.08 17.1,12.02 17.23,11.55 17.37,11.06 8.74,5.33 4.38,2.61 -11.7,52.37 -5.08,0.51 -10.18,1.1 -20.42,2.6 -20.51,3.12 -20.59,3.6 -5.16,0.97 -9.75,51.1 4.44,2.81 17.82,10.92 17.92,10.45 18.03,9.94 9.06,4.77 4.54,2.34 -8.4,53 -5.04,0.82 -10.08,1.74 -20.22,3.88 -20.28,4.39 -20.32,4.89 -5.09,1.3 -6.52,51.61 4.61,2.52 18.47,9.78 18.54,9.3 18.62,8.79 9.34,4.2 4.67,2.04 -5.05,53.43 -4.97,1.13 -9.96,2.37 -19.94,5.14 -19.96,5.66 -19.97,6.16 -5,1.61 -3.26,51.92 4.75,2.22 19.05,8.61 19.09,8.12 19.13,7.6 9.59,3.6 4.79,1.75 -1.68,53.63 -4.9,1.45 -9.79,2.99 -19.57,6.38 -19.57,6.91 -19.55,7.39 -4.88,1.93 0,52.01 4.88,1.93 19.55,7.39 19.57,6.91 19.57,6.38 9.79,2.99 4.9,1.44 1.68,53.64 -4.79,1.75 -9.59,3.6 -19.13,7.6 -19.09,8.12 -19.05,8.61 -4.75,2.22 3.26,51.92 5,1.61 19.97,6.16 19.96,5.66 19.94,5.14 9.96,2.37 4.97,1.13 5.05,53.43 -4.67,2.04 -9.34,4.2 -18.62,8.79 -18.54,9.29 -18.47,9.79 -4.61,2.52 6.52,51.61 5.09,1.3 20.32,4.89 20.28,4.39 20.22,3.88 10.08,1.74 5.04,0.82 8.4,53 -4.54,2.34 -9.06,4.77 -18.03,9.94 -17.92,10.45 -17.82,10.92 -4.44,2.81 9.75,51.1 5.16,0.97 20.59,3.6 20.51,3.12 20.42,2.6 10.18,1.1 5.08,0.5 11.7,52.38 -4.38,2.61 -8.74,5.33 -17.37,11.05 -17.23,11.55 -17.1,12.03 -4.25,3.08 12.94,50.38 5.21,0.65 20.77,2.3 20.67,1.82 20.54,1.32 10.23,0.46 5.1,0.18 14.97,51.53 -4.21,2.89 -8.38,5.87 -16.65,12.12 -16.47,12.61 -16.31,13.08 -4.05,3.33 16.08,49.48 5.24,0.32 20.87,0.99 20.74,0.52 20.59,0.02 10.239997,-0.18 5.1,-0.14 18.18,50.49 -4.02,3.15 -8.01,6.38 -15.839997,13.14 -15.65,13.62 -15.46,14.08 -3.83,3.58 19.15,48.37 5.25,-0.01 20.899997,-0.32 20.73,-0.79 20.55,-1.27 10.2,-0.82 5.08,-0.46 21.32,49.25 -3.82,3.39 -7.58,6.88 -15,14.11 -14.76,14.57 -14.54,15.02 -3.6,3.82 22.15,47.07 5.24,-0.34 20.84,-1.63 20.6400003,-2.09 20.4299997,-2.56 10.13,-1.46 5.04,-0.78 24.36,47.82 -3.59,3.62 -7.14,7.34 -14.08,15.02 -13.81,15.48 -13.5699997,15.9 -3.36,4.03 25.0599997,45.59 5.21,-0.67 20.7,-2.94 20.46,-3.37 20.23,-3.84 10.020003,-2.09 4.99,-1.1 27.31,46.2 -3.36,3.84 -6.66,7.77 -13.1,15.88 -12.820003,16.31 -12.55,16.72 -3.09,4.24 27.870003,43.92 5.16,-0.99 20.47,-4.23 20.21,-4.66 19.95,-5.1 9.87,-2.72 4.91,-1.4 30.16,44.38 -3.11,4.05 -6.16,8.17 -12.09,16.67 -11.77,17.08 -11.47,17.48 -2.82,4.43 30.58,42.08 5.08,-1.31 20.16,-5.51 19.89,-5.92 19.59,-6.34 9.67,-3.33 4.81,-1.71 32.89,42.4 -2.85,4.23 -5.63,8.55 -11.02,17.4 -10.67,17.78 -10.35,18.16 -2.54,4.6 33.16,40.08 4.99,-1.63 19.78,-6.76 19.47,-7.16 19.15,-7.55 9.45,-3.94 4.69,-2.01 35.49,40.26 -2.58,4.4 -5.09,8.88 -9.89,18.06 -9.54,18.42 -9.19,18.77 -2.24,4.75 35.61,37.92 4.87,-1.94 19.32,-7.99 18.98,-8.37 18.64,-8.74 9.19,-4.52 4.55,-2.3 37.95,37.95 -2.3,4.55 -4.52,9.19 -8.75,18.64 -8.36,18.98 -7.99,19.31 -1.94,4.88 37.92,35.61 4.75,-2.24 18.77,-9.19 18.42,-9.54 18.06,-9.89 8.88,-5.09 4.4,-2.58 40.26,35.48 -2.01,4.7 -3.94,9.45 -7.55,19.15 -7.16,19.47 -6.76,19.78 -1.63,4.99 40.08,33.16 4.6,-2.54 18.16,-10.35 17.78,-10.67 17.4,-11.02 8.55,-5.63 4.23,-2.85 42.4,32.89 -1.71,4.8 -3.33,9.68 -6.34,19.59 -5.92,19.89 -5.51,20.16 -1.31,5.08 42.08,30.58 4.43,-2.82 17.47,-11.47 17.09,-11.77 16.67,-12.09 8.17,-6.16 4.05,-3.11 44.38,30.16 -1.4,4.91 -2.72,9.87 -5.1,19.95 -4.66,20.21 -4.23,20.47 -0.99,5.16 43.92,27.87 4.24,-3.09 16.72,-12.55 16.31,-12.82 15.88,-13.1 7.77,-6.67 3.84,-3.36 46.19003,27.32 -1.09,4.99 -2.09,10.02 -3.84,20.22 -3.38,20.47 -2.93,20.7 -0.67,5.2 45.58,25.06 4.04,-3.35 15.9,-13.57 15.48,-13.82 15.02,-14.07 7.34,-7.14 3.62,-3.59 47.82,24.36 -0.78,5.04 -1.47,10.13 -2.55,20.43 -2.09,20.64 -1.63,20.84 -0.34,5.24 47.07,22.15 3.82,-3.6 15.02,-14.54 14.57,-14.77 14.11,-14.99 6.88,-7.58 3.39,-3.82 49.25,21.32 -0.46,5.08 -0.83,10.2 -1.26,20.55 -0.79,20.73 -0.32,20.9 -0.01,5.25 48.37,19.15 3.58,-3.83 14.08,-15.46 13.62,-15.65 13.14,-15.85 6.38,-8 3.15,-4.02 50.49,18.18 -0.14,5.1 -0.18,10.24 0.02,20.59 0.52,20.74 0.99,20.87 0.32,5.24 49.47,16.08 3.34,-4.05 13.08,-16.31 12.61,-16.47 12.12,-16.65 5.87,-8.38 2.88,-4.21 51.54,14.97 0.18,5.1 0.46,10.23 1.32,20.54 1.82,20.67 2.3,20.77 0.65,5.21 50.38,12.94 3.08,-4.25 12.02,-17.1 11.55,-17.23 11.06,-17.37 5.33,-8.74 2.61,-4.38 52.37,11.7 0.51,5.08 1.1,10.18 2.6,20.42 3.12,20.51 3.6,20.59 0.97,5.16 51.1,9.75 2.81,-4.44 10.92,-17.82 10.45,-17.92 9.94,-18.03 4.77,-9.06 2.34,-4.54 53,8.4 0.82,5.04 1.74,10.08 3.88,20.22 4.39,20.28 4.89,20.32 1.3,5.09 51.61,6.52 2.52,-4.61 9.78,-18.47 9.3,-18.54 8.79,-18.62 4.2,-9.34 2.04,-4.67 53.43,5.05 1.13,4.97 2.37,9.96 5.14,19.94 5.66,19.96 6.16,19.97 1.61,5 51.92,3.26 2.22,-4.75 8.61,-19.05 8.12,-19.09 7.6,-19.13 3.6,-9.59 1.75,-4.79 53.63,1.68 1.45,4.9 2.99,9.79 6.38,19.57 6.91,19.57 7.39,19.55 1.93,4.88 52.01,0 1.93,-4.88 7.39,-19.55 6.91,-19.57 6.38,-19.57 2.99,-9.79 1.44,-4.9 53.64,-1.68 1.75,4.79 3.6,9.59 7.6,19.13 8.12,19.09 8.61,19.05 2.22,4.75 51.92,-3.26 1.61,-5 6.16,-19.97 5.66,-19.96 5.14,-19.94 2.37,-9.96 1.13,-4.97 53.43,-5.05 2.04,4.67 4.2,9.34 8.79,18.62 9.29,18.54 9.79,18.47 2.52,4.61 51.61,-6.52 1.3,-5.09 4.89,-20.32 4.39,-20.28 3.88,-20.22 1.74,-10.08 0.82,-5.04 53,-8.4 2.34,4.54 4.77,9.06 9.94,18.03 10.45,17.92 10.92,17.82 2.81,4.44 51.1,-9.75 0.97,-5.16 3.6,-20.59 3.12,-20.51 2.6,-20.42 1.1,-10.18 0.5,-5.08 52.38,-11.7 2.61,4.38 5.33,8.74 11.05,17.37 11.55,17.23 12.03,17.1 3.08,4.25 50.38,-12.94 0.65,-5.21 2.3,-20.77 1.82,-20.67 1.32,-20.54 0.46,-10.23 0.18,-5.1 51.53,-14.97 2.89,4.21 5.87,8.38 12.12,16.65 12.61,16.47 13.08,16.31 3.33,4.05 49.48,-16.08 0.32,-5.24 0.99,-20.87 0.52,-20.74 0.02,-20.59 -0.18,-10.24 -0.14,-5.1 50.49,-18.18 3.15,4.02 6.38,8 13.14,15.85 13.62,15.65 14.08,15.46 3.58,3.83 48.37,-19.15 -0.01,-5.25 -0.32,-20.9 -0.79,-20.73 -1.27,-20.55 -0.82,-10.2 -0.46,-5.08 49.25,-21.32 3.39,3.82 6.88,7.58 14.11,14.99 14.57,14.77 15.02,14.54 3.82,3.6 47.07,-22.15 -0.34,-5.24 -1.63,-20.84 -2.09,-20.64 -2.56,-20.43 -1.46,-10.13 -0.78,-5.04 47.82,-24.36 3.62,3.59 7.34,7.14 15.02,14.07 15.48,13.82 15.9,13.57 4.03,3.35 45.59,-25.06 -0.67,-5.2 -2.94,-20.7 -3.37,-20.47 -3.84,-20.22 -2.09,-10.02 -1.1,-4.99 46.2,-27.32 3.84,3.36 7.77,6.67 15.88,13.1 16.31,12.82 16.72,12.55 4.24,3.09 43.92,-27.87 -0.99,-5.16 -4.23,-20.47 -4.66,-20.21 -5.1,-19.95 -2.72,-9.87 -1.4,-4.91 44.38,-30.16 4.05,3.11 8.17,6.16 16.67,12.09 17.08,11.77 17.48,11.47 4.43,2.82 42.08,-30.58 -1.31,-5.08 -5.51,-20.16 -5.92,-19.89 -6.34,-19.59 -3.33,-9.68 -1.71,-4.8 42.4,-32.89 4.23,2.85 8.55,5.63 17.4,11.02 17.78,10.67 18.16,10.35 4.6,2.54 40.08,-33.16 -1.63,-4.99 -6.76,-19.78 -7.16,-19.47 -7.55,-19.15 -3.94,-9.45 -2.01,-4.7 40.26,-35.48 4.4,2.58 8.88,5.09 18.06,9.89 18.42,9.54 18.77,9.19 4.75,2.24 37.92,-35.61 -1.94,-4.88 -7.99,-19.31 -8.37,-18.98 -8.74,-18.64 -4.52,-9.19 -2.3,-4.55 37.95,-37.95 4.55,2.3 9.19,4.52 18.64,8.74 18.98,8.37 19.31,7.99 4.88,1.94 35.61,-37.92 -2.24,-4.75 -9.19,-18.77 -9.54,-18.42 -9.89,-18.06 -5.09,-8.88 -2.58,-4.4 35.48,-40.26 4.7,2.01 9.45,3.94 19.15,7.55 19.47,7.16 19.78,6.76 4.99,1.63 33.16,-40.08 -2.54,-4.6 -10.35,-18.16 -10.67,-17.78 -11.02,-17.4 -5.63,-8.55 -2.85,-4.23 32.89,-42.4 4.8,1.71 9.68,3.33 19.59,6.34 19.89,5.92 20.16,5.51 5.08,1.31 30.58,-42.08 -2.82,-4.43 -11.47,-17.48 -11.77,-17.08 -12.09,-16.67 -6.16,-8.17 -3.11,-4.05 30.16,-44.38 4.91,1.4 9.87,2.72 19.95,5.1 20.21,4.66 20.47,4.23 5.16,0.99 27.87,-43.92 -3.09,-4.24 -12.55,-16.72 -12.82,-16.31 -13.1,-15.88 -6.67,-7.77 -3.36,-3.84 27.32,-46.2 4.99,1.1 10.02,2.09 20.22,3.84 20.47,3.37 20.7,2.94 5.2,0.67 25.06,-45.59 -3.35,-4.03 -13.57,-15.9 -13.82,-15.48 -14.07,-15.02 -7.14,-7.34 -3.59,-3.62 24.36,-47.82 5.04,0.78 10.13,1.46 20.43,2.56 20.64,2.09 20.84,1.63 5.24,0.34 22.15,-47.07 -3.6,-3.82 -14.54,-15.02 -14.77,-14.57 -14.99,-14.11 -7.58,-6.88 -3.82,-3.39 21.32,-49.25 5.08,0.46 10.2,0.82 20.55,1.27 20.73,0.79 20.9,0.32 5.25,0.01 19.15,-48.37 -3.83,-3.58 -15.46,-14.08 -15.65,-13.62 -15.85,-13.14 -8,-6.38 -4.02,-3.15 18.18,-50.49 5.1,0.14 10.24,0.18 20.59,-0.02 20.74,-0.52 20.87,-0.99 5.24,-0.32 16.08,-49.48 -4.05,-3.33 -16.31,-13.08 -16.47,-12.61 -16.65,-12.12 -8.38,-5.87 -4.21,-2.89 14.97,-51.53 5.1,-0.18 10.23,-0.46 20.54,-1.32 20.67,-1.82 20.77,-2.3 5.21,-0.65 12.94,-50.38 -4.25,-3.08 -17.1,-12.03 -17.23,-11.55 -17.37,-11.05 -8.74,-5.33 -4.38,-2.61 11.7,-52.38 5.08,-0.5 10.18,-1.1 20.42,-2.6 20.51,-3.12 20.59,-3.6 5.16,-0.97 9.75,-51.1 -4.44,-2.81 -17.82,-10.92 -17.92,-10.45 -18.03,-9.94 -9.06,-4.77 -4.54,-2.34 8.4,-53 5.04,-0.82 10.08,-1.74 20.22,-3.88 20.28,-4.39 20.32,-4.89 5.09,-1.3 6.52,-51.61 -4.61,-2.52 -18.47,-9.79 -18.54,-9.29 -18.62,-8.79 -9.34,-4.2 -4.67,-2.04 5.05,-53.43 4.97,-1.13 9.96,-2.37 19.94,-5.14 19.96,-5.66 19.97,-6.16 5,-1.61 3.26,-51.92 -4.75,-2.22 -19.05,-8.61 -19.09,-8.12 -19.13,-7.6 -9.59,-3.6 -4.79,-1.75 1.68,-53.64 4.9,-1.44 9.79,-2.99 19.57,-6.38 19.57,-6.91 19.55,-7.39 z"
       id="G1Gear"
       inkscape:connector-curvature="0" />
    <path
       style="display:inline;fill:none;stroke:#000000;stroke-width:0.42098698;stroke-opacity:1"
       d="m 295.525,777.88656 a 21.049349,21.049349 0 0 1 -21.04935,21.04935 21.049349,21.049349 0 0 1 -21.04935,-21.04935 21.049349,21.049349 0 0 1 21.04935,-21.04935 21.049349,21.049349 0 0 1 21.04935,21.04935 z"
       id="G1_sh"
       inkscape:connector-curvature="0" />
    <g
       style="display:inline"
       id="g6920"
       transform="translate(6.8609346,-1.2374318)">
      <path
         style="fill:none;fill-opacity:1;stroke:#000000;stroke-width:0.38585413;stroke-miterlimit:4;stroke-dasharray:none;stroke-opacity:1"
         d="m 379.50368,779.12399 a 5.5897491,5.5897496 0 0 1 -5.58976,5.58975 5.5897491,5.5897496 0 0 1 -5.58975,-5.58975 5.5897491,5.5897496 0 0 1 5.58975,-5.58975 5.5897491,5.5897496 0 0 1 5.58976,5.58975 z"
         id="path6914"
         inkscape:connector-curvature="0" />
      <path
         inkscape:connector-curvature="0"
         id="path6916"
         d="m 166.90526,779.12399 a 5.5897491,5.5897496 0 0 1 -5.58976,5.58975 5.5897491,5.5897496 0 0 1 -5.58975,-5.58975 5.5897491,5.5897496 0 0 1 5.58975,-5.58975 5.5897491,5.5897496 0 0 1 5.58976,5.58975 z"
         style="fill:none;fill-opacity:1;stroke:#000000;stroke-width:0.38585413;stroke-miterlimit:4;stroke-dasharray:none;stroke-opacity:1" />
    </g>
    <g
       style="display:inline"
       id="g6924"
       transform="translate(1.2380446,-20.661472)">
      <g
         id="g6934">
        <path
           style="fill:none;fill-opacity:1;stroke:#000000;stroke-width:0.38585413;stroke-miterlimit:4;stroke-dasharray:none;stroke-opacity:1"
           d="m 278.82795,692.24882 a 5.5897491,5.5897496 0 0 1 -5.58976,5.58975 5.5897491,5.5897496 0 0 1 -5.58975,-5.58975 5.5897491,5.5897496 0 0 1 5.58975,-5.58975 5.5897491,5.5897496 0 0 1 5.58976,5.58975 z"
           id="path6911"
           inkscape:connector-curvature="0" />
        <path
           inkscape:connector-curvature="0"
           id="path6918"
           d="m 278.82677,904.84724 a 5.5897491,5.5897496 0 0 1 -5.58976,5.58975 5.5897491,5.5897496 0 0 1 -5.58975,-5.58975 5.5897491,5.5897496 0 0 1 5.58975,-5.58975 5.5897491,5.5897496 0 0 1 5.58976,5.58975 z"
           style="fill:none;fill-opacity:1;stroke:#000000;stroke-width:0.38585413;stroke-miterlimit:4;stroke-dasharray:none;stroke-opacity:1" />
      </g>
    </g>
  </g>
</svg>
