<?xml version="1.0" encoding="UTF-8" standalone="no"?>
<!-- Created with Inkscape (http://www.inkscape.org/) -->

<svg
   xmlns:dc="http://purl.org/dc/elements/1.1/"
   xmlns:cc="http://creativecommons.org/ns#"
   xmlns:rdf="http://www.w3.org/1999/02/22-rdf-syntax-ns#"
   xmlns:svg="http://www.w3.org/2000/svg"
   xmlns="http://www.w3.org/2000/svg"
   xmlns:sodipodi="http://sodipodi.sourceforge.net/DTD/sodipodi-0.dtd"
   xmlns:inkscape="http://www.inkscape.org/namespaces/inkscape"
   width="240mm"
   height="160mm"
   viewBox="0 0 850.3937 566.92913"
   id="svg2"
   version="1.1"
   inkscape:version="0.91 r13725"
   sodipodi:docname="Small Gear.svg">
  <defs
     id="defs4" />
  <sodipodi:namedview
     id="base"
     pagecolor="#ffffff"
     bordercolor="#666666"
     borderopacity="1.0"
     inkscape:pageopacity="0.0"
     inkscape:pageshadow="2"
     inkscape:zoom="0.97141728"
     inkscape:cx="487.69613"
     inkscape:cy="292.83678"
     inkscape:document-units="px"
     inkscape:current-layer="layer1"
     showgrid="false"
     inkscape:window-width="1280"
     inkscape:window-height="751"
     inkscape:window-x="1"
     inkscape:window-y="1"
     inkscape:window-maximized="0" />
  <metadata
     id="metadata7">
    <rdf:RDF>
      <cc:Work
         rdf:about="">
        <dc:format>image/svg+xml</dc:format>
        <dc:type
           rdf:resource="http://purl.org/dc/dcmitype/StillImage" />
        <dc:title />
      </cc:Work>
    </rdf:RDF>
  </metadata>
  <g
     inkscape:label="small gear"
     inkscape:groupmode="layer"
     id="layer1"
     style="display:inline"
     transform="translate(0,-485.43307)"
     sodipodi:insensitive="true">
    <g
       id="g5437"
       transform="matrix(0.10471953,0,0,0.10471953,32.656548,245.04786)"
       style="stroke:#000000;stroke-opacity:1">
      <path
         style="fill:none;fill-opacity:0.2;stroke:#000000;stroke-miterlimit:10;stroke-opacity:1"
         d="m 4922.1523,5119.2407 -2.53,0.78 -2.55,0.6 -2.57,0.46 -5.1,1.21 -5.05,1.64 -5.03,1.96 -4.98,2.24 -4.96,2.48 -4.92,2.7 -4.88,2.92 -4.84,3.12 -4.8,3.32 -4.76,3.51 -4.71,3.69 -3.5,2.88 10.18,47.91 4.37,1.21 5.81,1.46 5.77,1.26 5.74,1.08 5.69,0.88 5.65,0.69 5.59,0.47 5.53,0.25 5.47,0.01 5.39,-0.25 5.28,-0.56 5.16,-0.96 2.52,-0.63 2.58,-0.49 2.63,-0.32 2.72,-0.07 1.41,0.08 1.44,0.21 1.51,0.38 1.63,0.7 2.29,2.52 18.74,42.08 0.34,3.39 -0.57,1.68 -0.73,1.38 -0.81,1.21 -0.88,1.1 -1.87,1.97 -2,1.75 -2.09,1.58 -2.16,1.46 -4.16,3.18 -3.95,3.56 -3.79,3.84 -3.65,4.07 -3.52,4.28 -3.39,4.47 -3.27,4.65 -3.16,4.82 -3.03,4.99 -2.93,5.14 -2.8,5.28 -2.02,4.06 28.78,39.63 4.49,-0.68 5.9,-1.03 5.78,-1.19 5.68,-1.35 5.56,-1.51 5.44,-1.67 5.3,-1.84 5.16,-2.03 5,-2.21 4.82,-2.42 4.6,-2.66 4.31,-2.98 2.06,-1.6 2.15,-1.49 2.28,-1.36 2.45,-1.18 1.32,-0.49 1.4,-0.4 1.54,-0.27 1.77,-0.02 3.12,1.37 34.23,30.82 1.69,2.96 0.16,1.77 -0.1,1.55 -0.25,1.44 -0.35,1.36 -0.92,2.56 -1.11,2.41 -1.26,2.3 -1.38,2.21 -2.51,4.6 -2.16,4.86 -1.91,5.04 -1.67,5.21 -1.48,5.34 -1.28,5.46 -1.09,5.58 -0.92,5.69 -0.75,5.79 -0.58,5.88 -0.41,5.97 -0.2,4.53 42.42,24.49 3.82,-2.44 4.97,-3.34 4.8,-3.44 4.64,-3.54 4.47,-3.64 4.28,-3.74 4.1,-3.84 3.89,-3.95 3.66,-4.05 3.42,-4.17 3.12,-4.3 2.73,-4.48 1.23,-2.3 1.36,-2.24 1.53,-2.17 1.76,-2.07 1,-0.98 1.12,-0.94 1.3,-0.87 1.61,-0.74 3.4,-0.02 43.81,14.24 2.75,2.02 0.87,1.54 0.53,1.46 0.36,1.42 0.23,1.39 0.21,2.71 -0.04,2.65 -0.22,2.61 -0.36,2.58 -0.42,5.23 0,5.31 0.31,5.39 0.59,5.43 0.82,5.48 1.06,5.51 1.26,5.55 1.48,5.57 1.67,5.59 1.86,5.61 2.06,5.62 1.66,4.22 48.71,5.12 2.5,-3.78 3.18,-5.07 2.99,-5.1 2.8,-5.12 2.6,-5.15 2.39,-5.16 2.18,-5.17 1.94,-5.19 1.7,-5.19 1.43,-5.2 1.1,-5.2 0.68,-5.2 0.18,-2.6 0.33,-2.6 0.52,-2.6 0.76,-2.61 0.52,-1.31 0.64,-1.31 0.83,-1.32 1.17,-1.33 3.11,-1.4 45.81,-4.82 3.32,0.73 1.43,1.06 1.08,1.11 0.9,1.15 0.78,1.18 1.29,2.39 1.05,2.44 0.86,2.47 0.72,2.5 1.74,4.95 2.16,4.86 2.48,4.79 2.74,4.72 2.98,4.67 3.21,4.61 3.41,4.55 3.62,4.49 3.8,4.43 3.98,4.36 4.16,4.3 3.24,3.18 46.58,-15.13 0.75,-4.48 0.84,-5.92 0.65,-5.87 0.48,-5.82 0.28,-5.76 0.09,-5.68 -0.12,-5.62 -0.33,-5.53 -0.56,-5.43 -0.81,-5.33 -1.11,-5.2 -1.5,-5.03 -0.88,-2.45 -0.76,-2.5 -0.59,-2.59 -0.36,-2.7 -0.06,-1.4 0.05,-1.46 0.22,-1.54 0.53,-1.7 2.27,-2.54 39.89,-23.03 3.33,-0.69 1.73,0.39 1.45,0.58 1.29,0.68 1.19,0.76 2.15,1.66 1.95,1.8 1.79,1.91 1.68,1.99 3.6,3.81 3.95,3.56 4.21,3.37 4.43,3.2 4.62,3.05 4.81,2.91 4.96,2.77 5.13,2.63 5.27,2.5 5.42,2.37 5.55,2.23 4.25,1.59 36.4,-32.77 -1.14,-4.39 -1.64,-5.76 -1.79,-5.63 -1.94,-5.51 -2.08,-5.37 -2.23,-5.23 -2.39,-5.08 -2.55,-4.92 -2.72,-4.74 -2.91,-4.54 -3.13,-4.3 -3.41,-3.98 -1.81,-1.87 -1.71,-1.99 -1.59,-2.12 -1.43,-2.32 -0.62,-1.26 -0.55,-1.35 -0.42,-1.5 -0.21,-1.76 1.03,-3.25 27.08,-37.26 2.77,-1.99 1.74,-0.35 1.55,-0.06 1.46,0.1 1.39,0.21 2.64,0.64 2.52,0.86 2.41,1.01 2.34,1.14 4.84,2.02 5.06,1.64 5.22,1.37 5.34,1.12 5.47,0.91 5.57,0.7 5.66,0.51 5.76,0.32 5.83,0.13 5.91,-0.04 5.98,-0.21 4.53,-0.28 19.92,-44.74 -2.82,-3.55 -3.85,-4.59 -3.92,-4.42 -4.01,-4.24 -4.08,-4.06 -4.17,-3.87 -4.25,-3.67 -4.33,-3.46 -4.42,-3.22 -4.5,-2.96 -4.61,-2.66 -4.73,-2.25 -2.41,-0.98 -2.38,-1.11 -2.31,-1.3 -2.25,-1.53 -1.08,-0.9 -1.05,-1.01 -1,-1.2 -0.9,-1.52 -0.38,-3.39 9.58,-45.06 1.72,-2.94 1.44,-1.02 1.4,-0.69 1.37,-0.5 1.36,-0.38 2.67,-0.49 2.65,-0.24 2.62,-0.05 2.6,0.09 5.24,-0.13 5.29,-0.56 5.32,-0.87 5.34,-1.15 5.36,-1.39 5.38,-1.63 5.38,-1.84 5.39,-2.05 5.38,-2.24 5.39,-2.44 5.37,-2.63 4.03,-2.1 0,-48.98 -4.03,-2.09 -5.37,-2.63 -5.39,-2.44 -5.38,-2.25 -5.39,-2.04 -5.38,-1.84 -5.38,-1.63 -5.36,-1.39 -5.34,-1.15 -5.32,-0.87 -5.29,-0.56 -5.24,-0.13 -2.6,0.09 -2.62,-0.05 -2.65,-0.24 -2.67,-0.5 -1.36,-0.37 -1.37,-0.5 -1.4,-0.69 -1.44,-1.02 -1.72,-2.94 -9.58,-45.06 0.38,-3.39 0.9,-1.52 1,-1.2 1.05,-1.01 1.08,-0.9 2.25,-1.53 2.31,-1.3 2.38,-1.12 2.41,-0.97 4.73,-2.25 4.61,-2.66 4.5,-2.96 4.42,-3.22 4.33,-3.46 4.25,-3.67 4.17,-3.87 4.08,-4.06 4.01,-4.24 3.92,-4.42 3.85,-4.59 2.82,-3.55 -19.92,-44.74 -4.53,-0.28 -5.98,-0.22 -5.91,-0.04 -5.83,0.14 -5.76,0.32 -5.66,0.51 -5.57,0.7 -5.47,0.91 -5.34,1.12 -5.22,1.37 -5.06,1.64 -4.84,2.02 -2.34,1.14 -2.41,1.01 -2.52,0.86 -2.64,0.64 -1.39,0.2 -1.46,0.11 -1.55,-0.06 -1.74,-0.35 -2.77,-1.99 -27.08,-37.27 -1.03,-3.24 0.21,-1.76 0.42,-1.5 0.55,-1.35 0.62,-1.26 1.43,-2.32 1.59,-2.12 1.71,-1.99 1.81,-1.87 3.41,-3.98 3.13,-4.3 2.91,-4.54 2.72,-4.74 2.55,-4.92 2.39,-5.08 2.23,-5.23 2.08,-5.37 1.94,-5.51 1.79,-5.63 1.64,-5.76 1.14,-4.39 -36.4,-32.77 -4.25,1.59 -5.55,2.23 -5.42,2.37 -5.27,2.5 -5.13,2.63 -4.96,2.77 -4.81,2.91 -4.62,3.05 -4.43,3.2 -4.21,3.37 -3.95,3.56 -3.6,3.81 -1.68,1.99 -1.79,1.91 -1.95,1.8 -2.15,1.66 -1.19,0.76 -1.29,0.68 -1.45,0.58 -1.73,0.39 -3.33,-0.69 -39.89,-23.03 -2.27,-2.55 -0.53,-1.69 -0.22,-1.54 -0.05,-1.46 0.06,-1.4 0.36,-2.7 0.59,-2.59 0.76,-2.51 0.88,-2.44 1.5,-5.03 1.11,-5.2 0.81,-5.33 0.56,-5.44 0.33,-5.53 0.12,-5.61 -0.09,-5.69 -0.28,-5.75 -0.48,-5.82 -0.65,-5.87 -0.84,-5.93 -0.75,-4.47 -46.58,-15.14 -3.24,3.19 -4.16,4.3 -3.98,4.36 -3.8,4.43 -3.62,4.49 -3.41,4.55 -3.21,4.61 -2.98,4.66 -2.74,4.73 -2.48,4.79 -2.16,4.86 -1.74,4.94 -0.72,2.51 -0.86,2.47 -1.05,2.44 -1.29,2.39 -0.78,1.18 -0.9,1.15 -1.08,1.11 -1.43,1.06 -3.32,0.73 -45.81,-4.82 -3.11,-1.4 -1.17,-1.33 -0.83,-1.32 -0.64,-1.31 -0.52,-1.31 -0.76,-2.61 -0.52,-2.6 -0.33,-2.6 -0.18,-2.6 -0.68,-5.2 -1.1,-5.2 -1.43,-5.2 -1.7,-5.19 -1.94,-5.19 -2.18,-5.17 -2.39,-5.16 -2.6,-5.15 -2.8,-5.12 -2.99,-5.1 -3.18,-5.07 -2.5,-3.78 -48.71,5.12 -1.66,4.22 -2.06,5.62 -1.86,5.61 -1.67,5.59 -1.48,5.57 -1.26,5.55 -1.06,5.51 -0.82,5.48 -0.59,5.43 -0.31,5.38 0,5.32 0.42,5.23 0.36,2.58 0.22,2.61 0.04,2.65 -0.21,2.71 -0.23,1.39 -0.36,1.42 -0.53,1.46 -0.87,1.54 -2.75,2.02 -43.81,14.24 -3.4,-0.02 -1.61,-0.74 -1.3,-0.87 -1.12,-0.94 -1,-0.98 -1.76,-2.07 -1.53,-2.17 -1.36,-2.24 -1.23,-2.3 -2.73,-4.48 -3.12,-4.3 -3.42,-4.17 -3.66,-4.05 -3.89,-3.95 -4.1,-3.84 -4.28,-3.74 -4.47,-3.64 -4.64,-3.54 -4.8,-3.44 -4.97,-3.35 -3.82,-2.43 -42.42,24.49 0.2,4.53 0.41,5.97 0.58,5.88 0.75,5.79 0.92,5.69 1.09,5.58 1.28,5.46 1.48,5.34 1.67,5.21 1.91,5.04 2.16,4.86 2.51,4.6 1.38,2.21 1.26,2.3 1.11,2.41 0.92,2.56 0.35,1.36 0.25,1.44 0.1,1.55 -0.16,1.77 -1.69,2.96 -34.23,30.82 -3.12,1.37 -1.77,-0.02 -1.54,-0.27 -1.4,-0.4 -1.32,-0.49 -2.45,-1.18 -2.28,-1.36 -2.15,-1.49 -2.06,-1.6 -4.31,-2.98 -4.6,-2.66 -4.82,-2.42 -5,-2.21 -5.16,-2.03 -5.3,-1.84 -5.44,-1.68 -5.56,-1.5 -5.68,-1.35 -5.78,-1.19 -5.9,-1.03 -4.49,-0.68 -28.78,39.63 2.02,4.06 2.8,5.28 2.93,5.14 3.03,4.99 3.16,4.82 3.27,4.65 3.39,4.47 3.52,4.28 3.65,4.07 3.79,3.84 3.95,3.55 4.16,3.19 2.16,1.46 2.09,1.58 2,1.75 1.87,1.97 0.88,1.1 0.81,1.21 0.73,1.38 0.57,1.68 -0.34,3.39 -18.74,42.08 -2.29,2.52 -1.63,0.7 -1.51,0.38 -1.44,0.21 -1.41,0.08 -2.72,-0.08 -2.63,-0.31 -2.58,-0.49 -2.52,-0.63 -5.16,-0.96 -5.28,-0.56 -5.39,-0.25 -5.47,0.01 -5.53,0.25 -5.59,0.47 -5.65,0.68 -5.69,0.89 -5.74,1.08 -5.77,1.26 -5.81,1.46 -4.37,1.21 -10.18,47.91 3.5,2.88 4.71,3.69 4.76,3.51 4.8,3.31 4.84,3.13 4.88,2.92 4.92,2.7 4.96,2.48 4.98,2.24 5.03,1.96 5.05,1.64 5.1,1.21 2.57,0.46 2.55,0.6 2.53,0.78 2.52,1.04 1.25,0.65 1.23,0.77 1.23,0.97 1.2,1.3 1.07,3.23 0,46.07 -1.07,3.23 -1.2,1.3 -1.23,0.97 -1.23,0.77 -1.25,0.65 z"
         id="G2Gear"
         inkscape:connector-curvature="0" />
      <g
         id="layer1-0"
         inkscape:label="Layer 1"
         transform="matrix(9.5493171,0,0,9.5493171,5103.6867,-5099.7639)">
        <path
           id="path6050"
           d="m 23.767589,1059.9962 -10.548828,0 a 8.6829212,8.6829264 0 0 0 -3.4042965,6.8867 8.6829212,8.6829264 0 0 0 8.6816405,8.6836 8.6829212,8.6829264 0 0 0 8.683594,-8.6836 8.6829212,8.6829264 0 0 0 -3.41211,-6.8867 z"
           style="fill:#ffffff;fill-opacity:1;stroke:#000000;stroke-width:0.35069302;stroke-miterlimit:4;stroke-dasharray:none;stroke-opacity:1"
           inkscape:connector-curvature="0" />
      </g>
    </g>
  </g>
</svg>
