<?xml version="1.0" encoding="UTF-8" standalone="no"?>
<!-- Created with Inkscape (http://www.inkscape.org/) -->

<svg
   xmlns:dc="http://purl.org/dc/elements/1.1/"
   xmlns:cc="http://creativecommons.org/ns#"
   xmlns:rdf="http://www.w3.org/1999/02/22-rdf-syntax-ns#"
   xmlns:svg="http://www.w3.org/2000/svg"
   xmlns="http://www.w3.org/2000/svg"
   xmlns:sodipodi="http://sodipodi.sourceforge.net/DTD/sodipodi-0.dtd"
   xmlns:inkscape="http://www.inkscape.org/namespaces/inkscape"
   width="210mm"
   height="297mm"
   viewBox="0 0 744.09448819 1052.3622047"
   id="svg6135"
   version="1.1"
   inkscape:version="0.91 r13725"
   sodipodi:docname="step motor cuts.svg">
  <defs
     id="defs6137" />
  <sodipodi:namedview
     id="base"
     pagecolor="#ffffff"
     bordercolor="#666666"
     borderopacity="1.0"
     inkscape:pageopacity="0.0"
     inkscape:pageshadow="2"
     inkscape:zoom="2.2544553"
     inkscape:cx="21.3021"
     inkscape:cy="112.44146"
     inkscape:document-units="px"
     inkscape:current-layer="layer1"
     showgrid="false"
     inkscape:window-width="1280"
     inkscape:window-height="751"
     inkscape:window-x="0"
     inkscape:window-y="1"
     inkscape:window-maximized="1" />
  <metadata
     id="metadata6140">
    <rdf:RDF>
      <cc:Work
         rdf:about="">
        <dc:format>image/svg+xml</dc:format>
        <dc:type
           rdf:resource="http://purl.org/dc/dcmitype/StillImage" />
        <dc:title></dc:title>
      </cc:Work>
    </rdf:RDF>
  </metadata>
  <g
     inkscape:label="Layer 1"
     inkscape:groupmode="layer"
     id="layer1">
    <path
       style="fill:none;fill-opacity:1;stroke:#000000;stroke-width:0.12582342;stroke-miterlimit:4;stroke-dasharray:none;stroke-opacity:1"
       d="m 0.06291111,902.54326 149.75606889,0 0,149.75604 -149.75606889,0 z"
       id="rect6683"
       inkscape:connector-curvature="0" />
    <g
       id="g6726"
       transform="translate(14.704721,-14.704688)">
      <path
         inkscape:connector-curvature="0"
         id="path6685"
         d="m 10.575412,1047.0473 a 5.2604523,5.2604523 0 0 1 -5.2604516,5.2604 5.2604523,5.2604523 0 0 1 -5.26045204,-5.2604 5.2604523,5.2604523 0 0 1 5.26045204,-5.2605 5.2604523,5.2604523 0 0 1 5.2604516,5.2605 z"
         style="fill:none;fill-opacity:1;stroke:#000000;stroke-width:0.10901672;stroke-miterlimit:4;stroke-dasharray:none;stroke-opacity:1" />
      <path
         inkscape:connector-curvature="0"
         style="fill:none;fill-opacity:1;stroke:#000000;stroke-width:0.10901672;stroke-miterlimit:4;stroke-dasharray:none;stroke-opacity:1"
         d="m 120.41794,937.20478 a 5.2604523,5.2604523 0 0 1 -5.26045,5.2604 5.2604523,5.2604523 0 0 1 -5.26046,-5.2604 5.2604523,5.2604523 0 0 1 5.26046,-5.2605 5.2604523,5.2604523 0 0 1 5.26045,5.2605 z"
         id="path6719" />
      <path
         id="path6721"
         d="m 10.575418,937.20478 a 5.2604523,5.2604523 0 0 1 -5.2604496,5.2604 5.2604523,5.2604523 0 0 1 -5.26046004,-5.2604 5.2604523,5.2604523 0 0 1 5.26046004,-5.2605 5.2604523,5.2604523 0 0 1 5.2604496,5.2605 z"
         style="fill:none;fill-opacity:1;stroke:#000000;stroke-width:0.10901672;stroke-miterlimit:4;stroke-dasharray:none;stroke-opacity:1"
         inkscape:connector-curvature="0" />
      <path
         inkscape:connector-curvature="0"
         style="fill:none;fill-opacity:1;stroke:#000000;stroke-width:0.10901672;stroke-miterlimit:4;stroke-dasharray:none;stroke-opacity:1"
         d="m 120.41794,1047.0473 a 5.2604523,5.2604523 0 0 1 -5.26045,5.2604 5.2604523,5.2604523 0 0 1 -5.26046,-5.2604 5.2604523,5.2604523 0 0 1 5.26046,-5.2605 5.2604523,5.2604523 0 0 1 5.26045,5.2605 z"
         id="path6723" />
    </g>
    <circle
       style="fill:none;fill-opacity:1;stroke:#000000;stroke-width:0.32777646;stroke-miterlimit:4;stroke-dasharray:none;stroke-opacity:1"
       id="path6732"
       cx="74.940948"
       cy="977.42133"
       r="44.836113" />
  </g>
</svg>
